<?xml version="1.0" standalone="no"?>
<!DOCTYPE svg PUBLIC "-//W3C//DTD SVG 20010904//EN"
 "http://www.w3.org/TR/2001/REC-SVG-20010904/DTD/svg10.dtd">
<svg version="1.0" xmlns="http://www.w3.org/2000/svg"
 width="720.000000pt" height="720.000000pt" viewBox="0 0 720.000000 720.000000"
 preserveAspectRatio="xMidYMid meet">

<g transform="translate(0.000000,720.000000) scale(0.100000,-0.100000)"
fill="#000000" stroke="none">
<path d="M5291 6300 c-21 -12 -26 -110 -7 -135 l15 -20 15 20 c30 40 10 156
-23 135z"/>
<path d="M5087 6133 c-4 -3 -7 -31 -7 -61 0 -55 21 -106 48 -117 25 -9 32 5
32 67 0 78 -42 143 -73 111z"/>
<path d="M5496 6107 c-30 -40 -37 -126 -11 -147 20 -16 34 -5 57 47 15 34 18
56 13 89 -8 54 -24 56 -59 11z"/>
<path d="M4835 6078 c9 -42 40 -85 66 -93 29 -9 32 -3 19 43 -10 41 -50 82
-77 82 -11 0 -13 -8 -8 -32z"/>
<path d="M5760 6093 c-14 -9 -30 -24 -37 -33 -13 -16 -18 -80 -5 -80 16 1 55
42 72 77 26 54 15 67 -30 36z"/>
<path d="M5312 5973 c-27 -10 -62 -82 -62 -128 0 -76 52 -68 86 14 25 59 10
127 -24 114z"/>
<path d="M4720 5906 c0 -30 48 -93 85 -110 68 -33 86 -8 42 60 -24 36 -45 49
-94 59 -26 5 -33 3 -33 -9z"/>
<path d="M5805 5875 c-30 -29 -45 -53 -45 -70 0 -29 8 -30 57 -10 43 18 78 52
92 87 12 31 6 38 -31 38 -20 0 -41 -13 -73 -45z"/>
<path d="M4480 5861 c0 -38 99 -96 123 -72 16 16 -2 42 -44 63 -37 18 -79 23
-79 9z"/>
<path d="M6085 5858 c-27 -15 -65 -50 -65 -60 0 -4 15 -8 34 -8 37 0 96 41 96
66 0 17 -37 18 -65 2z"/>
<path d="M4990 5855 c0 -37 84 -123 123 -125 15 0 6 49 -15 75 -25 32 -108 71
-108 50z"/>
<path d="M5547 5826 c-75 -27 -133 -97 -93 -112 34 -13 146 73 146 112 0 17
-4 17 -53 0z"/>
<path d="M4637 5644 c-16 -16 36 -63 84 -78 50 -14 99 -8 99 12 0 10 -36 42
-67 60 -24 12 -105 17 -116 6z"/>
<path d="M5870 5629 c-38 -24 -61 -50 -54 -61 7 -12 61 -10 106 4 36 11 78 48
78 69 0 18 -95 9 -130 -12z"/>
<path d="M4960 5614 c0 -35 74 -84 126 -84 37 0 27 28 -24 67 -48 36 -102 45
-102 17z"/>
<path d="M5275 5617 c-19 -61 -10 -110 28 -154 36 -41 57 -25 57 44 0 52 -73
148 -85 110z"/>
<path d="M5578 5602 c-36 -27 -66 -67 -56 -77 2 -3 26 2 51 11 47 16 107 63
107 83 0 21 -65 11 -102 -17z"/>
<path d="M4346 5601 c-9 -13 19 -32 61 -42 41 -9 83 -3 83 13 0 25 -130 52
-144 29z"/>
<path d="M6193 5603 c-32 -6 -51 -32 -32 -44 26 -17 129 13 129 37 0 14 -45
17 -97 7z"/>
<path d="M4545 5426 c-18 -13 -17 -14 8 -31 37 -24 177 -20 177 5 0 36 -144
56 -185 26z"/>
<path d="M5929 5421 c-38 -31 -14 -44 70 -39 49 2 76 9 88 20 15 16 15 18 -11
28 -46 17 -121 12 -147 -9z"/>
<path d="M4921 5411 l-35 -6 33 -32 c49 -50 187 -82 198 -47 2 6 -5 20 -14 31
-38 43 -116 66 -182 54z"/>
<path d="M5631 5413 c-13 -3 -40 -15 -60 -28 -104 -65 -65 -98 65 -53 57 20
115 60 103 73 -8 7 -83 13 -108 8z"/>
<path d="M4408 5273 c-43 -22 -33 -33 31 -33 59 0 91 17 76 40 -9 14 -75 11
-107 -7z"/>
<path d="M6115 5280 c-4 -6 -1 -17 5 -25 17 -20 130 -21 130 -2 0 26 -121 49
-135 27z"/>
<path d="M5286 5268 c-20 -11 -21 -52 -1 -72 33 -33 105 23 76 58 -15 18 -55
25 -75 14z"/>
<path d="M4706 5229 c-38 -30 -20 -44 53 -42 86 2 155 41 99 57 -52 13 -125 6
-152 -15z"/>
<path d="M5773 5240 c-30 -12 -29 -17 10 -40 48 -29 167 -23 167 9 0 32 -122
53 -177 31z"/>
<path d="M5113 5128 c24 -24 54 -60 66 -82 49 -86 65 -301 36 -465 -21 -113
-38 -156 -86 -211 -28 -31 -29 -35 -12 -38 10 -2 59 18 109 42 l89 46 55 -26
c30 -15 74 -36 97 -46 55 -27 74 -20 40 15 -15 14 -27 29 -27 33 0 4 -6 15
-13 23 -51 62 -75 361 -43 529 15 76 67 169 114 200 12 8 21 16 19 18 -9 9
-98 -43 -159 -92 -37 -30 -74 -54 -82 -54 -8 0 -42 23 -76 50 -53 45 -145 100
-165 100 -4 0 13 -19 38 -42z"/>
<path d="M4880 5059 c-33 -13 -60 -39 -60 -56 0 -22 70 -5 103 25 15 14 27 29
27 34 0 11 -39 9 -70 -3z"/>
<path d="M5690 5057 c0 -23 43 -55 83 -62 28 -6 37 -4 37 6 -1 23 -23 45 -59
57 -44 16 -61 15 -61 -1z"/>
</g>
</svg>
