<svg xmlns="http://www.w3.org/2000/svg" viewBox="0 0 500 500"><g id="freepik--background-complete--inject-14"><path d="M311.68,233s5.5,6.3-1.57,13.54C310.11,246.55,306.49,238.7,311.68,233Z" style="fill:#f5f5f5"></path><path d="M311,243c-.15,0,.23-2.23.38-5s0-5,.2-5a14.64,14.64,0,0,1,.32,5A14.36,14.36,0,0,1,311,243Z" style="fill:#e0e0e0"></path><path d="M87.08,250.61s-1.46,8.23-11.54,7.27C75.54,257.88,79.39,250.13,87.08,250.61Z" style="fill:#f5f5f5"></path><path d="M78.89,256.33c-.07-.14,1.88-1.22,4.11-2.82s3.89-3.08,4-3a14.51,14.51,0,0,1-3.7,3.4A14.57,14.57,0,0,1,78.89,256.33Z" style="fill:#e0e0e0"></path><path d="M431.58,241.07s8.25-1.37,10.7,8.45C442.28,249.52,433.69,248.47,431.58,241.07Z" style="fill:#f5f5f5"></path><path d="M439.7,246.88c-.1.11-1.77-1.37-4-2.94s-4.2-2.64-4.14-2.78a14.51,14.51,0,0,1,4.44,2.36A14.3,14.3,0,0,1,439.7,246.88Z" style="fill:#e0e0e0"></path><path d="M442.26,312.27c0,.14-85.13.26-190.11.26S62,312.41,62,312.27s85.11-.26,190.14-.26S442.26,312.13,442.26,312.27Z" style="fill:#e0e0e0"></path><path d="M332.2,248.52s8.25-1.36,10.7,8.45C342.9,257,334.31,255.92,332.2,248.52Z" style="fill:#f5f5f5"></path><path d="M340.33,254.34c-.11.11-1.78-1.37-4-2.94s-4.2-2.65-4.13-2.78a20.38,20.38,0,0,1,8.16,5.72Z" style="fill:#e0e0e0"></path><path d="M190.27,256s8.24,1.44,7.29,11.52C197.56,267.54,189.81,263.7,190.27,256Z" style="fill:#f5f5f5"></path><path d="M196,264.19c-.14.07-1.22-1.88-2.82-4.1s-3.09-3.89-3-4a15,15,0,0,1,3.4,3.7A14.62,14.62,0,0,1,196,264.19Z" style="fill:#e0e0e0"></path><path d="M344.87,296.7c.48-3.48-4.43-6.35-8.12-6.65-1.77-.14-3.59.13-5.26-.45-3.62-1.26-5.06-5.93-8.59-7.42-2.64-1.11-5.67-.12-8.23,1.17s-5.08,2.9-7.94,3.09c-2.48.15-5.18-.77-7.35.45-1.62.9-2.47,2.77-4,3.87a9.45,9.45,0,0,1-5.18,1.4,14.75,14.75,0,0,0-5.34.87c-1.65.76-3,2.5-2.67,4.29Z" style="fill:#ebebeb"></path><path d="M149.63,280.24c.58-4.23-5.39-7.71-9.87-8.07-2.14-.17-4.36.15-6.38-.55-4.39-1.53-6.15-7.2-10.43-9-3.2-1.35-6.89-.15-10,1.42s-6.17,3.52-9.64,3.75c-3,.19-6.29-.93-8.93.54-2,1.1-3,3.37-4.81,4.7s-4.09,1.59-6.29,1.71-4.48.14-6.48,1.06-3.66,3-3.24,5.2Z" style="fill:#f5f5f5"></path><path d="M429.07,265.8c.42-3.06-3.9-5.59-7.16-5.85-1.55-.12-3.16.11-4.63-.4-3.18-1.11-4.45-5.22-7.56-6.53-2.32-1-5-.11-7.25,1s-4.48,2.56-7,2.72c-2.19.14-4.56-.67-6.48.4-1.43.8-2.17,2.44-3.49,3.41a8.32,8.32,0,0,1-4.56,1.24,12.61,12.61,0,0,0-4.7.77,3.71,3.71,0,0,0-2.35,3.77Z" style="fill:#f5f5f5"></path><path d="M141.13,298.16a8.74,8.74,0,0,1,1.81,1.68,32.9,32.9,0,0,1,6.32,10.1,9.53,9.53,0,0,1,.73,2.36,14.84,14.84,0,0,1-1.07-2.22,48,48,0,0,0-2.8-5.2,47.31,47.31,0,0,0-3.46-4.79A16.36,16.36,0,0,1,141.13,298.16Z" style="fill:#e0e0e0"></path><path d="M153.59,289.86c.08,0-.2,1.27-.51,3.31a50.81,50.81,0,0,0-.6,8,51.61,51.61,0,0,0,.69,8c.34,2,.64,3.29.56,3.31a2.7,2.7,0,0,1-.32-.85c-.17-.55-.38-1.37-.6-2.39a41.36,41.36,0,0,1-.85-8.09,40.93,40.93,0,0,1,.75-8.09c.21-1,.4-1.84.57-2.4A2.89,2.89,0,0,1,153.59,289.86Z" style="fill:#e0e0e0"></path><path d="M161.79,298.29a25.62,25.62,0,0,0-2.63,14,6.45,6.45,0,0,1-.43-2.1,18.66,18.66,0,0,1,1.9-10.11A6.53,6.53,0,0,1,161.79,298.29Z" style="fill:#e0e0e0"></path><path d="M82.89,302.88a18.38,18.38,0,0,1,6,9.5c-.15.05-1-2.32-2.67-4.94S82.78,303,82.89,302.88Z" style="fill:#e0e0e0"></path><path d="M91.26,297.32a65.29,65.29,0,0,0-.67,7.61,65.62,65.62,0,0,0,.76,7.6,7.7,7.7,0,0,1-.68-2.16,27.32,27.32,0,0,1-.6-5.44,25.72,25.72,0,0,1,.54-5.44A7.21,7.21,0,0,1,91.26,297.32Z" style="fill:#e0e0e0"></path><path d="M96.76,303a35.63,35.63,0,0,0-1.47,4.6,33.52,33.52,0,0,0-.29,4.81,8.76,8.76,0,0,1-.22-4.91A8.94,8.94,0,0,1,96.76,303Z" style="fill:#e0e0e0"></path><path d="M373.26,302.88a14.4,14.4,0,0,1,3.71,4.29,14.12,14.12,0,0,1,2.23,5.21c-.15.05-1-2.32-2.67-4.94S373.14,303,373.26,302.88Z" style="fill:#e0e0e0"></path><path d="M381.62,297.32a64.11,64.11,0,0,0-.66,7.61,67.07,67.07,0,0,0,.75,7.6,7.53,7.53,0,0,1-.67-2.16,26.47,26.47,0,0,1-.07-10.88A7.58,7.58,0,0,1,381.62,297.32Z" style="fill:#e0e0e0"></path><path d="M387.12,303a35.63,35.63,0,0,0-1.47,4.6,35.35,35.35,0,0,0-.29,4.81,10.8,10.8,0,0,1,1.76-9.41Z" style="fill:#e0e0e0"></path></g><g id="freepik--Tree--inject-14"><path d="M326.17,187.76s-4.42,2.39-5.7,2.94-11.23-2.94-11.23-2.94v3s9.39,1.92,10.67,2.31,7.55-4,7.55-4Z" style="fill:#263238"></path><path d="M173.36,140l-.39-4.5-2.29-5.43,1.79-.87s4.07,5.55,4.07,5.8,2,4.55,2,4.55Z" style="fill:#263238"></path><path d="M276.72,207.82l7.57,42.72-21.76,49.51,6.89,22.54-44.64,9.32s2.56-26.93,4.81-35.24,10.85-22.95,10.85-22.95L253,246.57l-10.51-10.1,3.14-26.59L269.91,200" style="fill:#263238"></path><path d="M259.52,216.4S246.46,195.68,243.34,192s-6-6.52-6-6.52-2.27-7.38-6.24-11.92-20.43-6-23.27-9.93-1.42-5.11-4.25-10.79-4.54-6.24-2.27-9.36,7.37-4.54,7.94-11.07.85-9.64.85-9.64.29-9.08-.56-12.49S205,104.6,205,104.6l-4.72,2.77s2.6.1,3,6.09a34.94,34.94,0,0,1-1.39,12.13,15.5,15.5,0,0,0-8.79-5.1c-5.39-.85-19.58-1.14-24.12-2.56s-10.22-11.35-10.22-11.35l-1.13,2.56s4.54,9.08,9.36,11.35,17.88-.29,25,3.4,8.23,3.12,6.53,8.23c0,0-1.7,3.69-3.41,4.82s-2.27,6.53-2.27,6.53l.57,4.82s-5.39-5.67-10.21-7.94a54.39,54.39,0,0,0-6.81-2.84s-6.81,4.26-11.64,4.83-15-.29-15-.29l-1.42,4,6.81,1.71s13.34-1.42,17.6-.85S186,154.25,186,154.25l3.41,8.52s1.13,6.24,4.82,8.79,16.74,4.26,19.87,7.38,9.08,13.05,9.36,13.9.85,9.94,3.12,12.49,17,24.49,17,24.49Z" style="fill:#263238"></path><path d="M346.35,185.18s-6.81-12.48-16.46-13.33-17.31-2.56-23.27-6-15.32-8.8-19.29-9.65-8.52-1.42-11.07,1.7-3.12,8.7-7.38,12.44-6.24,7.43-6.53,11.4,2,17.85,2,17.85L253,217.81l-10.5-14.18s4-25.26,9.65-33.49,24.12-31.21,38.59-25.53l6,2.27s8.57,0,5.7-6.81-3.15-13.06-8-18.16-10.5-10.22-10.78-14.76a15.27,15.27,0,0,1,1.7-8h4.82a5.9,5.9,0,0,0-.85,8.23c3.41,4.83,11.35,13.62,15,18.73s4.54,15,2.84,19.58a11.54,11.54,0,0,1-6,6.24s7.09,10.79,24.4,8c0,0,7.95-8.23,12.49-9.93s19-6,20.43-9.65-.57-6.53,1.7-8.8,6.24-3.4,6.81-7.37,1.7-11.07,1.7-11.07l2.56,2.27s.28,8.51-2.56,11.92-7.37,3.4-7.37,10.21,1.41,8.8-4.26,11.64-15.61,4-18.73,7.09a17.38,17.38,0,0,0-4,5.39l-2.84,5.58s10.22,4.35,15,11.45,12.77,16.45,17.31,20.43,14.19,5.39,14.19,5.39v2.84s-7.38,1.7-13.34-2.84S348.9,186.6,348.9,186.6v10.74l7.09,13.1-2,.56-8.23-15.6Z" style="fill:#263238"></path><path d="M267.24,318.16S274.73,337,290.69,341s38.77-4.85,42.76-3.14S354,348.72,354,348.72s29.36-8.84,31.07-8.84,31.07,10.55,31.07,10.55l-1.42,1.71-28.79-8.27s-23.66,9.69-24.52,10,5.7,5.7,6.56,5.7,18,3.42,18.81,3.42,8.55,6.56,8.55,6.56l-8.83-3.14-20.24-2.57-13.68-9.4s-11.69-6.56-19.67-7.41-7.13,1.71-7.13,1.71L348,369.53h15.67l28.79,4.56-.57,1.42-27.65-3.42-14,1.71,6.84,8.84,10.26,3.42,13.68,14-3.13,1.71-13.4-11.41-12-3.42-2.28,17.68-2-1.14.86-18-2-8-7.7-8.56s-12.25-12.54-19.09-13.68-17.11.29-17.11.29l7.7,10.54,19.67,3.71-.57,2-16.25-2.28,12.54,21.94,18,17.11h-2.85l-19.38-15.11-5.42-10-14-16.53-30.21-11.69s2.28,12.26,13.68,16.82a86.49,86.49,0,0,1,19.1,10.55l8.83,18L329,413.71,331,416l-20.09-11.37,2.28,9.69,5.7,8.83V434.8l-2.85-11.11-7.7-9.7-2.56-14.82s-2.28-8.84-4.56-11.69-13.12-5.41-13.12-5.41l2,16.82s8.27,8.55,9.12,13.68a63.89,63.89,0,0,1,.57,11.4h-1.42l-1.71-11.69L285.84,400,281,381.21,272.45,373s-3.14,18.52-1.71,23.37S281,424,281,424l-1.43,1.43S267,407.72,266.46,396c-.37-7.54-.26-14-.14-17.66.07-2-1.28,1.13-1.28,1.13s-6.56,8.57-16,11.13c0,0,11.69-7.42,14.25-16.83s-1-15.68-7.49-16.53-11.07,5.49-11.07,5.49l-.16,0,.93-42Z" style="fill:#263238"></path><path d="M229.06,315s-3.32,20.66-29.74,26c-16.13,3.27-38.77-4.85-42.76-3.14S136,348.72,136,348.72s-29.36-8.84-31.07-8.84-31.08,10.55-31.08,10.55l1.43,1.71,28.79-8.27s23.66,9.69,24.51,10-5.7,5.7-6.55,5.7-18,3.42-18.81,3.42-8.56,6.56-8.56,6.56l8.84-3.14,20.24-2.57,13.68-9.4s11.69-6.56,19.67-7.41,7.13,1.71,7.13,1.71L142,369.53H126.34l-28.79,4.56.57,1.42,27.65-3.42,14,1.71-6.84,8.84-10.26,3.42L109,400l3.13,1.71,13.4-11.41,12-3.42,2.28,17.68,2-1.14-.86-18,2-8,7.69-8.56s12.26-12.54,19.1-13.68,17.11.29,17.11.29l-7.7,10.54-19.67,3.71.57,2,16.25-2.28-12.54,21.94-18,17.11h2.85L168,393.47l5.42-10,14-16.53,30.21-11.69s-2.28,12.26-13.68,16.82a86.49,86.49,0,0,0-19.1,10.55l-8.84,18-14.89,13.11L159,416l20.1-11.37-2.28,9.69-5.7,8.83V434.8L174,423.69l7.69-9.7,2.57-14.82s2.28-8.84,4.56-11.69,13.11-5.41,13.11-5.41l-2,16.82s-8.27,8.55-9.12,13.68a63.89,63.89,0,0,0-.57,11.4h1.42l1.71-11.69L204.16,400,209,381.21l8.55-8.26s3.14,18.52,1.71,23.37S209,424,209,424l1.42,1.43S223,407.72,223.55,396c.37-7.54.26-14,.14-17.66-.07-2,1.28,1.13,1.28,1.13s8.51,9.31,17.92,11.87c0,0-13.64-8.16-16.21-17.57s1-15.68,7.5-16.53,10.42,5.51,10.42,5.51l.16-.11,4.31-42.77Z" style="fill:#263238"></path><path d="M267.74,220.59c.17-.8,13.65-14.86,16.8-22s8.37-13.8,19.11-8.75c1.43.67,10.39,8.91,12,10.77s11.8,7,12.34,7.65,9.53,1.74,9.53,1.74l-.82-3.18s-9.17-1.84-10.91-3.49-12-10.19-12-10.19-6.88-10.74-9.38-11.62-8.83-6-14.4-4.7-15.78,10.26-15.78,10.26l-14,12.22Z" style="fill:#263238"></path><path d="M267.3,228.7c-1.45-1.26-11.44,5-36.66-10.91-7.47-4.72-18.83-8.89-24-8.21s-9,2.63-13.68,1.48-8.54-9.19-10-12.88-3.33-5.56-4.95-7.66-14.25-18.66-17.64-18.91S145,173.88,145,173.88l-20.14,5.51.45,1.29s18.18-1.32,23-1.24,7.15-3.13,11.12-.47,14.37,14.26,16.09,17.72,3.24,14.72,6.38,17.56,13.82,8,13.82,8,17.53,2.25,20.85,1.59,7.1,3.61,11.1,8.18,12.07,6.94,16.32,7.49,23.68,9,23.68,9Z" style="fill:#263238"></path><path d="M192.77,216.67S179.65,231,177.12,230.3s-14.9-3.07-16.09-4.14-9.64-12.1-10.74-13.9-2.74-6.17-7.37-9.55-21.4-9.64-21.4-9.64-14.87,2.21-15.65,2.48-10.46,6.63-10.46,6.63l1,1.32s11-5.51,11.61-6,11.16-1,11.94-1.27S137.37,205,137.37,205s5,.09,6.24,3.79,6.63,12.44,6.63,12.44-8.7-3.54-12.57-2.54-13.09,8.79-13.09,8.79-11.13-.68-13.11.18-8-1.77-8-1.77l-10.88-5.51L79.36,223s1.85,4.54,2.88,3.74,8.29-3.42,11.46-1.9,9.06,9.58,12.32,10.37,10.56-2.2,11.51-2.26,9.1,1.91,9.1,1.91a37.8,37.8,0,0,1,9.13-7c4.79-2.38,18,1,18.9,1.3s23.24,11.21,23.24,11.21,10.36-5,17.36-7.12,22.86-9.35,22.86-9.35Z" style="fill:#263238"></path><path d="M260.59,169.52s-16.46-10.31-16.23-12.93.33-15.2,1.17-16.57,10.15-11.67,11.73-13.07,5.57-3.81,8.06-9,5.62-22.79,5.62-22.79S266.08,81,265.67,80.24s-8.4-9.09-8.4-9.09l-1.12,1.25s7.4,9.81,8,10.33,3,10.8,3.41,11.52-5.49,18.68-5.49,18.68.82,5-2.61,6.82-11,8.77-11,8.77,1.91-9.2.23-12.82-11-11.29-11-11.29-1.34-11.07-2.55-12.86.3-8.19.3-8.19l3.45-11.7-5-12.54s-4.13,2.63-3.15,3.51,4.86,7.53,3.93,10.93-7.78,10.63-8,14,4.07,10,4.31,10.91-.24,9.3-.24,9.3a37.5,37.5,0,0,1,8.58,7.71c3.21,4.28,2.27,17.89,2.14,18.82s-6.83,24.88-6.83,24.88,6.82,9.29,10.14,15.79,13.32,20.8,13.32,20.8Z" style="fill:#263238"></path><path d="M405.93,153.05c-.74.74-6.9,3.94-7.88,3.94s-11.08-1.48-14,0-3.41,3.2-5.89,3.2-19.47-4.68-19.47-4.68l-25.35,4.68-2.71,7s20.18-6.4,25.6-7.08,19.24,5.48,21.93,3.75,8.1-5.37,8.1-5.37H397.8Z" style="fill:#263238"></path><path d="M378.13,204.48l10.6-.64,19.63,9.57,10.36,2.69-.4,1.71s-11.75-1.81-13.05-2.61-17-8.37-17-8.37l-12.65.78Z" style="fill:#263238"></path><polygon points="150.44 142.11 143.69 141.12 134.8 136.81 128.97 127.68 114.22 124.77 114.22 126.59 126.79 129.32 130.97 136.81 121.32 136.81 121.32 138.79 134.43 139.7 143.36 144.98 149.32 146.28 150.44 142.11" style="fill:#263238"></polygon><polygon points="283.62 106.76 283.23 91.36 281.99 86.21 273.88 76.09 275.13 74.84 282.92 83.25 286.5 90.34 287.28 97.43 297.41 93.22 307.38 82.63 308.94 83.72 300.06 95.25 290.09 101.95 288.88 106.76 283.62 106.76" style="fill:#263238"></polygon><polygon points="302.38 128.72 313.41 112.54 332.68 112.54 342.16 104.6 342.16 94.53 344.68 94.53 344.68 108.12 335.84 115.39 348.79 117.6 347.21 120.12 333.94 117.91 327.62 116.02 320.67 115.07 314.36 115.7 308.94 127.71 302.38 135.53 302.38 128.72" style="fill:#263238"></polygon><path d="M203.9,110.33l-18.7-8.79-10.29-.69L170,97l1.21-.86s3.53,3.82,4.88,3.82,6.74-.78,6.74-.78l-3.54-8.74h1.15l4.8,8.74,9,1.65L205,104.6Z" style="fill:#263238"></path><path d="M207.23,108.24l2.87-5.56-1.43-4.9,3.85-9,4.13-5.48-.51-.37L211.4,88l-2.21-3.51-.6.2,1.31,3.15s-4.33,9.22-4.33,9.73l1.09,4.45-2,3.26Z" style="fill:#263238"></path><path d="M161.17,172.17l-9.5-6.48-.69-6.81-8-4.39v1.17l7,4s-.9,6-1.24,7.21,6.44,7.6,6.44,7.6Z" style="fill:#263238"></path><polygon points="234.02 143.71 228.61 140.2 216.89 135.79 218.05 139.12 229.7 144.45 234.66 159.16 241 150.27 234.02 143.71" style="fill:#263238"></polygon><path d="M245.47,419.36c-.14,0-.26-5.49-.26-12.27s.12-12.27.26-12.27.27,5.5.27,12.27S245.62,419.36,245.47,419.36Z" style="fill:#263238"></path><path d="M233,408.11a39.54,39.54,0,0,1,2.45-6.08,40,40,0,0,1,2.94-5.88,41.43,41.43,0,0,1-2.46,6.09A42,42,0,0,1,233,408.11Z" style="fill:#263238"></path><path d="M257.93,408.11c-.15.05-1.23-2.66-2.89-5.84s-3.23-5.65-3.1-5.73a24.35,24.35,0,0,1,3.57,5.49A23.94,23.94,0,0,1,257.93,408.11Z" style="fill:#263238"></path><path d="M262.53,396.52a7,7,0,0,1-2.22-1.51c-1.12-.94-2-1.79-1.87-1.9a7,7,0,0,1,2.21,1.5C261.78,395.55,262.62,396.41,262.53,396.52Z" style="fill:#263238"></path><path d="M229.11,396.36c-.08-.13.76-.84,1.73-1.77s1.73-1.73,1.85-1.64-.48,1.05-1.49,2A4.72,4.72,0,0,1,229.11,396.36Z" style="fill:#263238"></path><path d="M231,414.6c-.13-.06,0-.65.33-1.32s.68-1.16.81-1.09,0,.65-.33,1.31S231.13,414.66,231,414.6Z" style="fill:#263238"></path><path d="M261.15,414.08c-.13.05-.47-.52-.75-1.27s-.4-1.41-.27-1.46.47.52.76,1.28S261.29,414,261.15,414.08Z" style="fill:#263238"></path><path d="M252.55,300.05a3.79,3.79,0,0,1-.27.65c-.2.43-.48,1.06-.8,1.88a54.14,54.14,0,0,0-2.17,7.18,85.43,85.43,0,0,1-3,10.76,25.48,25.48,0,0,1-3.1,5.86,17.59,17.59,0,0,1-5.26,4.8c-2.09,1.28-4.27,2.24-6.27,3.31a21.35,21.35,0,0,0-5.3,3.74,27.77,27.77,0,0,0-5.92,9.26c-1.21,2.93-1.95,5.39-2.48,7.09l-.59,1.95a5.39,5.39,0,0,1-.24.67,3.74,3.74,0,0,1,.13-.7c.11-.45.28-1.12.51-2a65,65,0,0,1,2.33-7.17,27.66,27.66,0,0,1,5.92-9.46,21.68,21.68,0,0,1,5.4-3.85c2-1.09,4.19-2.05,6.24-3.3a17.26,17.26,0,0,0,5.12-4.66,25.76,25.76,0,0,0,3.07-5.74,94.53,94.53,0,0,0,3.1-10.67,47.59,47.59,0,0,1,2.33-7.17c.36-.81.67-1.43.89-1.84A4.31,4.31,0,0,1,252.55,300.05Z" style="fill:#455a64"></path><path d="M271.55,279a4.87,4.87,0,0,1-.36.65,15.86,15.86,0,0,1-1.22,1.75,25.48,25.48,0,0,1-5.83,5.22,57.39,57.39,0,0,1-10.37,5.23,122.11,122.11,0,0,0-13,5.68c-4.37,2.4-8.15,5.57-10.27,9.34a18.08,18.08,0,0,0-2,5.75c-.35,1.9-.56,3.7-.88,5.33a15.07,15.07,0,0,1-3.09,7.16,9.81,9.81,0,0,1-1.57,1.45c-.2.14-.37.23-.47.29s-.17.1-.17.09a13.42,13.42,0,0,0,2-2,15.17,15.17,0,0,0,2.88-7.1c.3-1.61.49-3.41.83-5.33a18.33,18.33,0,0,1,2-5.92c2.16-3.89,6-7.12,10.43-9.56a120.94,120.94,0,0,1,13-5.67,58.61,58.61,0,0,0,10.34-5.09,26.4,26.4,0,0,0,5.88-5,18.48,18.48,0,0,0,1.29-1.68A3.35,3.35,0,0,1,271.55,279Z" style="fill:#455a64"></path><path d="M278.31,203.41s-.7.51-1.91,1.51a27.15,27.15,0,0,0-4.55,4.76,28,28,0,0,0-4.43,8.66,25.74,25.74,0,0,0-1.1,5.64,43.18,43.18,0,0,0,.08,6.21,26.88,26.88,0,0,1-.18,6.29,14.39,14.39,0,0,1-2.25,5.43c-2.1,3.12-4.57,5.41-6.36,7.55a20.94,20.94,0,0,0-3.63,5.47l-.38,1-.21.74a4,4,0,0,1-.2.59,2.28,2.28,0,0,1,.1-.62c0-.22.1-.47.16-.75s.21-.62.34-1a19.91,19.91,0,0,1,3.54-5.64c1.77-2.18,4.21-4.51,6.24-7.57a14.12,14.12,0,0,0,2.15-5.26,26.94,26.94,0,0,0,.16-6.18,42.48,42.48,0,0,1-.07-6.27,26.16,26.16,0,0,1,1.15-5.75,27.7,27.7,0,0,1,4.59-8.74,25.19,25.19,0,0,1,4.73-4.69,16.22,16.22,0,0,1,1.48-1A2.4,2.4,0,0,1,278.31,203.41Z" style="fill:#455a64"></path><path d="M252.35,242.58a2.56,2.56,0,0,1-.17-.48,13,13,0,0,1-.35-1.43,19.47,19.47,0,0,1-.17-5.4,41.31,41.31,0,0,1,1.68-7.84c.87-2.88,2-6,2.75-9.36a28,28,0,0,0,.69-5c.09-1.61-.07-3.18-.1-4.69a14.67,14.67,0,0,1,.39-4.3,11.09,11.09,0,0,1,5.71-6.93,8.67,8.67,0,0,1,1.37-.54,3.27,3.27,0,0,1,.5-.12c0,.06-.67.24-1.77.84a11.37,11.37,0,0,0-3.89,3.55,10.83,10.83,0,0,0-1.5,3.31,14.39,14.39,0,0,0-.33,4.17c0,1.49.21,3.07.13,4.73a29,29,0,0,1-.69,5.06c-.78,3.4-1.91,6.52-2.8,9.38a42.11,42.11,0,0,0-1.77,7.74,21.19,21.19,0,0,0,0,5.33C252.21,241.89,252.4,242.57,252.35,242.58Z" style="fill:#455a64"></path><path d="M256.21,205.71a5.23,5.23,0,0,0-.56-2.5,6.9,6.9,0,0,0-1.82-2.1c-.82-.68-1.82-1.34-2.84-2.07-2-1.46-3.88-2.8-5.19-3.79a14,14,0,0,1-2.06-1.7A13.27,13.27,0,0,1,246,195c1.37.91,3.24,2.21,5.28,3.66,1,.74,2,1.4,2.85,2.13a7,7,0,0,1,1.84,2.31,4.12,4.12,0,0,1,.4,2C256.35,205.48,256.24,205.72,256.21,205.71Z" style="fill:#455a64"></path><path d="M250.58,237.4a14.61,14.61,0,0,1-2.25-2,55.81,55.81,0,0,1-4.76-5.54,54.76,54.76,0,0,1-4-6.12,13.81,13.81,0,0,1-1.32-2.72,23,23,0,0,1,1.64,2.53c1,1.58,2.39,3.73,4.09,6s3.38,4.21,4.62,5.59A21.89,21.89,0,0,1,250.58,237.4Z" style="fill:#455a64"></path><path d="M265.85,316a5.09,5.09,0,0,1-.26.59,14.53,14.53,0,0,0-.77,1.68,27.34,27.34,0,0,0-1.66,6.56c-.44,2.83-.63,6.26-1.33,10a22.58,22.58,0,0,1-1.82,5.74,10.58,10.58,0,0,1-.77,1.39,10.82,10.82,0,0,1-.9,1.34,17.06,17.06,0,0,1-2.27,2.39c-3.41,2.92-7.44,4.46-11,5.72s-6.88,2.26-9.48,3.46a25,25,0,0,0-5.77,3.52c-1.22,1-1.79,1.73-1.83,1.69a2.37,2.37,0,0,1,.4-.51,12.59,12.59,0,0,1,1.3-1.33,23.32,23.32,0,0,1,5.74-3.7,93.29,93.29,0,0,1,9.48-3.59c3.55-1.27,7.52-2.81,10.83-5.65a16.62,16.62,0,0,0,2.2-2.32,10.05,10.05,0,0,0,.87-1.29,10.51,10.51,0,0,0,.75-1.35,22.29,22.29,0,0,0,1.81-5.6c.72-3.72.94-7.15,1.44-10a25.77,25.77,0,0,1,1.83-6.58,12.3,12.3,0,0,1,.86-1.65A2.41,2.41,0,0,1,265.85,316Z" style="fill:#455a64"></path><path d="M264,326.56a1.86,1.86,0,0,1,.3.47l.77,1.41c.67,1.29,1.59,3.06,2.72,5.21s2.32,5,4.4,7.44a9.31,9.31,0,0,0,4.13,2.74,18.8,18.8,0,0,0,5.38.77c3.74.08,7.48-.16,10.65,1a20,20,0,0,1,7.22,4.94,47,47,0,0,1,3.8,4.5c.42.56.73,1,.94,1.3a2.69,2.69,0,0,1,.3.47,2.77,2.77,0,0,1-.38-.41l-1-1.23a55.3,55.3,0,0,0-3.9-4.37,20,20,0,0,0-7.12-4.75c-3.06-1.14-6.72-.9-10.51-1a18.78,18.78,0,0,1-5.53-.81,9.82,9.82,0,0,1-4.32-2.9c-2.15-2.6-3.22-5.4-4.37-7.59s-1.94-4-2.58-5.3l-.67-1.44A3.73,3.73,0,0,1,264,326.56Z" style="fill:#455a64"></path><path d="M255.92,345.12a8.14,8.14,0,0,0,.93,2.84,8.35,8.35,0,0,0,2.17,2.39,16.71,16.71,0,0,0,3.49,1.94c2.65,1.1,5.09,2.08,6.82,2.84a17.36,17.36,0,0,1,2.77,1.31,17.42,17.42,0,0,1-2.91-1c-1.77-.67-4.21-1.59-6.89-2.7a15.66,15.66,0,0,1-3.58-2,8.14,8.14,0,0,1-2.19-2.58,5.77,5.77,0,0,1-.66-2.18A1.82,1.82,0,0,1,255.92,345.12Z" style="fill:#455a64"></path><path d="M223.2,327.26a1.58,1.58,0,0,1-.14.49,11.75,11.75,0,0,1-.51,1.37,22.45,22.45,0,0,1-2.67,4.67,25.22,25.22,0,0,1-5.69,5.59,24.57,24.57,0,0,1-8.92,4c-3.38.76-6.66,1.16-9.35,2.4a17,17,0,0,0-6,4.9,47.06,47.06,0,0,0-3.08,4.36l-.79,1.22c-.19.28-.29.42-.31.41a2.23,2.23,0,0,1,.22-.47c.15-.29.39-.72.71-1.27a40.24,40.24,0,0,1,3-4.48,16.86,16.86,0,0,1,6.12-5.1c2.77-1.31,6.1-1.73,9.44-2.48a24.41,24.41,0,0,0,8.75-3.85,25.57,25.57,0,0,0,5.68-5.41,25,25,0,0,0,2.77-4.53C222.91,327.9,223.15,327.24,223.2,327.26Z" style="fill:#455a64"></path><path d="M261,279.71a2.6,2.6,0,0,1-.36.16l-1.05.46c-.93.4-2.25,1.11-4,1.82a11.85,11.85,0,0,1-3.12.8,7.58,7.58,0,0,1-3.8-.53,5.27,5.27,0,0,1-1.75-1.28,5.65,5.65,0,0,1-1.11-2,7.89,7.89,0,0,1,.2-4.93,15.22,15.22,0,0,1,2.82-4.65c1.23-1.45,2.64-2.8,4.06-4.24l9.14-9.13,4.94-4.94a9.11,9.11,0,0,1,3.05-2.09,3.1,3.1,0,0,1,3.6.92,6.26,6.26,0,0,1,1,3.71c0,.64,0,1.27-.07,1.92s-.16,1.27-.24,1.91a23.13,23.13,0,0,1-2.65,7.37,23.87,23.87,0,0,1-11.27,10.23,22.38,22.38,0,0,1-3.54,1.15,6.29,6.29,0,0,1-1.89.08,3,3,0,0,1-1.75-.76,2.57,2.57,0,0,1-.8-1.75,4.8,4.8,0,0,1,.3-1.82,19,19,0,0,1,1.6-3.11,33.33,33.33,0,0,1,8.76-9.5c.84-.59,1.66-1.15,2.51-1.65a4.43,4.43,0,0,1,2.83-.85,1.41,1.41,0,0,1,1.17,1,2.45,2.45,0,0,1-.08,1.45,23.14,23.14,0,0,1-1,2.47,22.25,22.25,0,0,1-2.62,4.19c-.49.61-1,1.18-1.5,1.7a5.61,5.61,0,0,1-1.71,1.33,2.32,2.32,0,0,1-1,.23,1.17,1.17,0,0,1-.92-.52,1.23,1.23,0,0,1-.16-1,2.43,2.43,0,0,1,.38-.85c.71-1,1.46-1.71,2.09-2.45l2.95-3.31.77-.85.28-.28a1.67,1.67,0,0,1-.24.32l-.73.88-2.88,3.37c-.6.74-1.38,1.53-2,2.45a1.45,1.45,0,0,0-.21,1.57c.32.51,1,.46,1.62.18a5.2,5.2,0,0,0,1.6-1.28,18.9,18.9,0,0,0,1.47-1.7,22.36,22.36,0,0,0,2.55-4.13,22.78,22.78,0,0,0,1-2.43,2.15,2.15,0,0,0,.08-1.22,1,1,0,0,0-.86-.7,4,4,0,0,0-2.55.81c-.84.49-1.65,1.05-2.47,1.64a32.86,32.86,0,0,0-8.61,9.4,18.72,18.72,0,0,0-1.55,3,4.38,4.38,0,0,0-.26,1.63,2,2,0,0,0,.64,1.41,3.73,3.73,0,0,0,3.21.56,14,14,0,0,0,1.73-.49,13.44,13.44,0,0,0,1.7-.64,23.41,23.41,0,0,0,11-10,22.58,22.58,0,0,0,2.59-7.19c.08-.63.17-1.25.24-1.88s.06-1.25.07-1.87a5.8,5.8,0,0,0-.92-3.39,2.57,2.57,0,0,0-3-.76,8.54,8.54,0,0,0-2.86,2l-5,4.93-9.16,9.1c-1.43,1.43-2.85,2.77-4.06,4.19a14.55,14.55,0,0,0-2.78,4.51,7.61,7.61,0,0,0-.23,4.72,4.9,4.9,0,0,0,2.66,3.14,7.43,7.43,0,0,0,3.66.54,11.42,11.42,0,0,0,3.07-.74c1.79-.68,3.13-1.36,4.07-1.73.47-.19.84-.33,1.08-.41Z" style="fill:#455a64"></path><path d="M276.72,238.19s.23.13.59.43a11,11,0,0,1,1.36,1.44,13.91,13.91,0,0,1,1.59,2.47,15.08,15.08,0,0,1,1.62,7,14.36,14.36,0,0,1-.33,2.93,10.88,10.88,0,0,1-.59,1.88c-.18.43-.3.66-.34.65s.29-1,.57-2.6a16.28,16.28,0,0,0-2.81-12.08C277.42,239,276.66,238.26,276.72,238.19Z" style="fill:#455a64"></path><path d="M250.05,289.86a9.58,9.58,0,0,1-2.4.16,15.81,15.81,0,0,1-5.73-.93,8.15,8.15,0,0,1-4.34-3.86,5.09,5.09,0,0,1-.49-1.71,1.41,1.41,0,0,1,0-.66,11.28,11.28,0,0,0,.8,2.2,8.3,8.3,0,0,0,4.2,3.54,18.09,18.09,0,0,0,5.56,1A12.76,12.76,0,0,1,250.05,289.86Z" style="fill:#455a64"></path><path d="M174.91,228.19s4.14-12-9.93-18.16C165,210,164.36,223.15,174.91,228.19Z" style="fill:#32825F"></path><path d="M168.28,214.55a8.64,8.64,0,0,1,1.34,1.79,41.09,41.09,0,0,1,2.62,4.71,39.53,39.53,0,0,1,2,5,7.77,7.77,0,0,1,.53,2.17c-.15,0-1.19-3.19-3-7S168.14,214.64,168.28,214.55Z" style="fill:#263238"></path><path d="M168.46,218.82a13.64,13.64,0,0,1,4.44,4.33,30.29,30.29,0,0,1-4.44-4.33Z" style="fill:#263238"></path><path d="M188.56,203.75s8.41-10.23-3.12-21.37C185.44,182.38,180.08,195,188.56,203.75Z" style="fill:#32825F"></path><path d="M187,188a9.68,9.68,0,0,1,.66,2.24,42.23,42.23,0,0,1,.85,5.55,43.06,43.06,0,0,1,.13,5.62,9.56,9.56,0,0,1-.26,2.32c-.16,0,0-3.55-.39-7.89S186.86,188,187,188Z" style="fill:#263238"></path><path d="M192.19,204.19s9.9-2.26,8.14-14.43C200.33,189.76,191.16,194.89,192.19,204.19Z" style="fill:#32825F"></path><path d="M198.65,193.91a26.74,26.74,0,0,1-6.55,10.19c-.12-.1,1.62-2.19,3.42-5S198.51,193.85,198.65,193.91Z" style="fill:#263238"></path><path d="M215.94,184.55s-9.28-10.28-22.59-.07C193.35,184.48,205.57,192,215.94,184.55Z" style="fill:#32825F"></path><path d="M199.41,183.71a10,10,0,0,1,2.41-.33,45.44,45.44,0,0,1,5.88,0,43.92,43.92,0,0,1,5.84.73,9.48,9.48,0,0,1,2.36.62,13.93,13.93,0,0,1-2.42-.26c-1.48-.2-3.53-.43-5.81-.57s-4.34-.15-5.83-.14A12.45,12.45,0,0,1,199.41,183.71Z" style="fill:#263238"></path><path d="M130.46,177s-.94-11-14.31-10.93C116.15,166.09,120.3,176.73,130.46,177Z" style="fill:#32825F"></path><path d="M120.37,168.52a7.52,7.52,0,0,1,2,1.19,39.12,39.12,0,0,1,4.15,3.62c1.53,1.52,2.83,3,3.74,4a9.66,9.66,0,0,1,1.37,1.83c-.12.1-2.45-2.48-5.47-5.5-1.52-1.5-3-2.81-4-3.7A16.42,16.42,0,0,1,120.37,168.52Z" style="fill:#263238"></path><path d="M124.73,182.51S114.28,179,109,191.23C109,191.23,120.39,191.7,124.73,182.51Z" style="fill:#32825F"></path><path d="M112.9,188.35a5.91,5.91,0,0,1,1.53-1.2,35.19,35.19,0,0,1,8.44-4.06,6.71,6.71,0,0,1,1.89-.45c0,.15-2.75,1.09-6,2.67S113,188.47,112.9,188.35Z" style="fill:#263238"></path><path d="M123.31,179.07s-6.26-9.9-18.81-3.31C104.5,175.76,113.6,183.76,123.31,179.07Z" style="fill:#32825F"></path><path d="M109.66,176a7,7,0,0,1,2.06,0,35.34,35.34,0,0,1,4.91.82,34.82,34.82,0,0,1,4.75,1.46,6.6,6.6,0,0,1,1.86.88c0,.14-3-1-6.73-1.84S109.65,176.15,109.66,176Z" style="fill:#263238"></path><path d="M134.34,143.52s-9.25-4.45-15.51,6.29C118.83,149.81,129.31,151.52,134.34,143.52Z" style="fill:#32825F"></path><path d="M122.77,147.58a20.33,20.33,0,0,1,5.57-2.63,20,20,0,0,1,6-1.31c0,.15-2.66.71-5.85,1.8S122.84,147.72,122.77,147.58Z" style="fill:#263238"></path><path d="M135.22,135.14s10.25.57,11.93-11.75C147.15,123.39,136.81,125.82,135.22,135.14Z" style="fill:#32825F"></path><path d="M144.36,127a19.76,19.76,0,0,1-4.14,4.56,20,20,0,0,1-5.06,3.51c-.08-.13,2.19-1.67,4.72-3.9S144.24,126.86,144.36,127Z" style="fill:#263238"></path><path d="M132,112.57s-8.3-10.25,3.27-21.26C135.24,91.31,140.48,103.91,132,112.57Z" style="fill:#32825F"></path><path d="M133.62,96.9c.16,0-.64,3.48-1,7.8s-.29,7.84-.45,7.85a9.64,9.64,0,0,1-.24-2.31,41.81,41.81,0,0,1,.17-5.59,42.75,42.75,0,0,1,.89-5.53A9,9,0,0,1,133.62,96.9Z" style="fill:#263238"></path><path d="M165.49,113.51S172,105.56,163,97C163,97,158.89,106.74,165.49,113.51Z" style="fill:#32825F"></path><path d="M164.26,101.31a20.28,20.28,0,0,1,1.24,6,19.55,19.55,0,0,1-.14,6.15c-.15,0-.06-2.75-.37-6.11S164.11,101.34,164.26,101.31Z" style="fill:#263238"></path><path d="M207.09,89.16s1-9.2-10-11.33C197.12,77.83,198.78,87.26,207.09,89.16Z" style="fill:#32825F"></path><path d="M200.19,80.52a17,17,0,0,1,3.91,3.94A17.41,17.41,0,0,1,207,89.21c-.14.08-1.42-2-3.3-4.43S200.08,80.63,200.19,80.52Z" style="fill:#263238"></path><path d="M191.78,83.59s5.3-7.59-3.35-14.72C188.43,68.87,185.39,78,191.78,83.59Z" style="fill:#32825F"></path><path d="M189.84,72.7A16.86,16.86,0,0,1,191.4,78a17.14,17.14,0,0,1,.27,5.55c-.16,0-.27-2.47-.78-5.47S189.7,72.75,189.84,72.7Z" style="fill:#263238"></path><path d="M174.18,78.35s5.29-7.59-3.35-14.72C170.83,63.63,167.79,72.71,174.18,78.35Z" style="fill:#32825F"></path><path d="M172.24,67.46a17.17,17.17,0,0,1,1.56,5.34,17,17,0,0,1,.26,5.55c-.15,0-.27-2.47-.78-5.47S172.09,67.51,172.24,67.46Z" style="fill:#263238"></path><path d="M210,100.39S210,89,223.75,87.93C223.75,87.93,220.43,99.21,210,100.39Z" style="fill:#32825F"></path><path d="M219.64,90.8c.09.12-2.29,2-4.9,4.67s-4.46,5.08-4.58,5a6.31,6.31,0,0,1,1.07-1.69,33.94,33.94,0,0,1,3.14-3.66A34.68,34.68,0,0,1,218,91.9,6.29,6.29,0,0,1,219.64,90.8Z" style="fill:#263238"></path><path d="M181.07,89.58s6.47-8-2.52-16.55C178.55,73,174.45,82.83,181.07,89.58Z" style="fill:#32825F"></path><path d="M179.8,77.38a20.06,20.06,0,0,1,1.27,6,20.41,20.41,0,0,1-.12,6.16c-.16,0-.08-2.75-.4-6.11S179.65,77.41,179.8,77.38Z" style="fill:#263238"></path><path d="M155.41,111.91s-5.21-7.08-14.25-1.48C141.16,110.43,148.39,115.93,155.41,111.91Z" style="fill:#32825F"></path><path d="M145,110.33a16,16,0,0,1,5.27.21,15.65,15.65,0,0,1,5.07,1.47c-.05.14-2.3-.5-5.15-1S145,110.48,145,110.33Z" style="fill:#263238"></path><path d="M161.39,85.39s-9-8.36-20,1.71C141.41,87.1,152.8,92.77,161.39,85.39Z" style="fill:#32825F"></path><path d="M146.71,86a7.72,7.72,0,0,1,2.1-.5,40.1,40.1,0,0,1,10.42-.3,7.84,7.84,0,0,1,2.13.39c0,.15-3.29-.18-7.33-.06S146.74,86.1,146.71,86Z" style="fill:#263238"></path><path d="M170,94.1s-5.21-7.08-14.25-1.48C155.71,92.62,163,98.12,170,94.1Z" style="fill:#32825F"></path><path d="M159.58,92.52a21.82,21.82,0,0,1,10.34,1.68c0,.14-2.3-.5-5.15-1S159.58,92.67,159.58,92.52Z" style="fill:#263238"></path><path d="M174.26,102.46s-6,6.43,1.18,14.28C175.44,116.74,179.51,108.61,174.26,102.46Z" style="fill:#32825F"></path><path d="M174.63,113a15.77,15.77,0,0,1-.77-5.22,15.83,15.83,0,0,1,.5-5.25c.16,0-.06,2.36,0,5.24S174.78,112.93,174.63,113Z" style="fill:#263238"></path><path d="M180.48,103s-3.59,8,5.73,13.14C186.21,116.18,187.44,107.17,180.48,103Z" style="fill:#32825F"></path><path d="M184.22,112.85a15.57,15.57,0,0,1-2.41-4.69,15.87,15.87,0,0,1-1.22-5.13c.15,0,.7,2.25,1.71,5S184.35,112.78,184.22,112.85Z" style="fill:#263238"></path><path d="M112.81,168.3s-5.56-7.55-15.2-1.58C97.61,166.72,105.32,172.59,112.81,168.3Z" style="fill:#32825F"></path><path d="M101.74,166.61a17.51,17.51,0,0,1,5.62.25,17.67,17.67,0,0,1,5.41,1.54c0,.15-2.46-.54-5.5-1S101.74,166.77,101.74,166.61Z" style="fill:#263238"></path><path d="M131.19,169.1s4.45-10.69-8-17.09C123.17,152,121.88,163.92,131.19,169.1Z" style="fill:#32825F"></path><path d="M125.91,156.31a6.81,6.81,0,0,1,1.14,1.69,35.18,35.18,0,0,1,2.13,4.43,36,36,0,0,1,1.53,4.68,6.69,6.69,0,0,1,.34,2c-.15,0-.93-3-2.35-6.49S125.78,156.39,125.91,156.31Z" style="fill:#263238"></path><path d="M190.32,141.55s1.86-8.47-8.18-11.54C182.14,130,182.76,139,190.32,141.55Z" style="fill:#32825F"></path><path d="M184.73,132.82a15.53,15.53,0,0,1,3.28,4.05,15.29,15.29,0,0,1,2.21,4.72c-.14.06-1.14-2-2.65-4.44S184.62,132.92,184.73,132.82Z" style="fill:#263238"></path><path d="M163.06,120s-6.74-2.11-9.95,5.82C153.11,125.84,160.42,126,163.06,120Z" style="fill:#32825F"></path><path d="M155.58,123.93a4.44,4.44,0,0,1,1.35-1.05,32.35,32.35,0,0,1,3.65-1.88,21.53,21.53,0,0,1,5.47-1.92c0,.13-2.35,1.08-5.26,2.39-1.45.66-2.75,1.27-3.68,1.74A8.28,8.28,0,0,1,155.58,123.93Z" style="fill:#263238"></path><path d="M144.81,141.27s-.88-5.59,5.78-7.2C150.59,134.07,149.83,139.88,144.81,141.27Z" style="fill:#32825F"></path><path d="M148.79,135.8c.08.08-1.17,1.71-2.52,3.87a32.11,32.11,0,0,1-2.56,3.86,15.37,15.37,0,0,1,2.12-4.14C147.19,137.21,148.67,135.67,148.79,135.8Z" style="fill:#263238"></path><path d="M169.59,122.17s-6.67-.17-7.53,7.86C162.06,130,168.73,128.26,169.59,122.17Z" style="fill:#32825F"></path><path d="M163.8,127.66a15.85,15.85,0,0,1,3.36-3.87,15.4,15.4,0,0,1,4.11-3.08c.07.11-1.7,1.53-3.75,3.46S163.91,127.74,163.8,127.66Z" style="fill:#263238"></path><path d="M157.43,142.69s3.65-8.25-6-13.46C151.48,129.23,150.26,138.48,157.43,142.69Z" style="fill:#32825F"></path><path d="M153.55,132.63c.14-.08,1.7,2.63,3,6.23s2,6.65,1.81,6.67a9.91,9.91,0,0,1-.69-1.9c-.38-1.19-.95-2.81-1.61-4.59s-1.31-3.38-1.8-4.52A9.61,9.61,0,0,1,153.55,132.63Z" style="fill:#263238"></path><path d="M188.64,105.9s-.89,6.8,7.24,8.54C195.88,114.44,194.78,107.42,188.64,105.9Z" style="fill:#32825F"></path><path d="M193.64,112.4a10.56,10.56,0,0,1-2.9-2.94,10.77,10.77,0,0,1-2-3.6,38.88,38.88,0,0,1,2.44,3.29A36.45,36.45,0,0,1,193.64,112.4Z" style="fill:#263238"></path><path d="M192,137.59s5.27-2.29,3-8.87C195,128.72,190.47,132.53,192,137.59Z" style="fill:#32825F"></path><path d="M194.53,131.2a8,8,0,0,1-.82,3.37,7.93,7.93,0,0,1-1.76,3,20.57,20.57,0,0,1,1.28-3.18A21.36,21.36,0,0,1,194.53,131.2Z" style="fill:#263238"></path><path d="M187.77,98s5.9-3.51,2.23-11C190,87,185.17,92.24,187.77,98Z" style="fill:#32825F"></path><path d="M189.79,90.05a10.79,10.79,0,0,1-.51,4.1A10.8,10.8,0,0,1,187.7,98,35.06,35.06,0,0,1,188.77,94,37.15,37.15,0,0,1,189.79,90.05Z" style="fill:#263238"></path><path d="M183.9,71.09s5.9-3.51,2.23-11C186.13,60.12,181.3,65.33,183.9,71.09Z" style="fill:#32825F"></path><path d="M185.92,63.14a10.79,10.79,0,0,1-.51,4.1,10.59,10.59,0,0,1-1.58,3.81,35.52,35.52,0,0,1,1.07-4A36.55,36.55,0,0,1,185.92,63.14Z" style="fill:#263238"></path><path d="M204.21,95.68s.21-6.86-8-7.79C196.17,87.89,198,94.77,204.21,95.68Z" style="fill:#32825F"></path><path d="M198.59,89.7a10.57,10.57,0,0,1,3.18,2.64,10.41,10.41,0,0,1,2.36,3.38,36,36,0,0,1-2.74-3A38.11,38.11,0,0,1,198.59,89.7Z" style="fill:#263238"></path><path d="M202.64,101.91s.15-4.79-5.62-5.44C197,96.47,198.27,101.27,202.64,101.91Z" style="fill:#32825F"></path><path d="M198.72,97.73a9,9,0,0,1,3.87,4.21c-.12.09-.92-.92-2-2.06S198.62,97.85,198.72,97.73Z" style="fill:#263238"></path><path d="M211.88,85.65s8.17-8.33-1.09-19C210.79,66.65,205.11,77.31,211.88,85.65Z" style="fill:#32825F"></path><path d="M211.75,71.71a7.51,7.51,0,0,1,.43,2,37.77,37.77,0,0,1,.32,4.94,36.16,36.16,0,0,1-.33,5,6.77,6.77,0,0,1-.43,2c-.15,0,.25-3.12.24-7S211.59,71.73,211.75,71.71Z" style="fill:#263238"></path><path d="M215.06,62.36S211,54,200.41,58.09C200.41,58.09,206.94,65.24,215.06,62.36Z" style="fill:#32825F"></path><path d="M204.48,58.73A17.33,17.33,0,0,1,210,60a17.73,17.73,0,0,1,5,2.48c-.07.14-2.32-1-5.21-2S204.45,58.88,204.48,58.73Z" style="fill:#263238"></path><path d="M159,116.08s-6.29-2.74-10.21,4.58C148.83,120.66,155.87,121.55,159,116.08Z" style="fill:#32825F"></path><path d="M151.41,119.08a10.53,10.53,0,0,1,3.62-2,10.76,10.76,0,0,1,4-.94,37.76,37.76,0,0,1-3.83,1.43A36.69,36.69,0,0,1,151.41,119.08Z" style="fill:#263238"></path><path d="M142.57,146.88s-8.28-.66-9.88,9.27C132.69,156.15,141.1,154.39,142.57,146.88Z" style="fill:#32825F"></path><path d="M135,153.32a20.05,20.05,0,0,1,7.6-6.35c.08.13-1.78,1.35-3.86,3.1S135.13,153.42,135,153.32Z" style="fill:#263238"></path><path d="M233.77,117.68s-1.38-6.72-9.62-5.71C224.15,112,227.47,118.24,233.77,117.68Z" style="fill:#32825F"></path><path d="M226.93,113.17a15.45,15.45,0,0,1,6.78,4.57,37.54,37.54,0,0,1-3.38-2.31A38,38,0,0,1,226.93,113.17Z" style="fill:#263238"></path><path d="M150.74,157.33s1.92-6.59-5.84-9.55C144.9,147.78,144.91,154.88,150.74,157.33Z" style="fill:#32825F"></path><path d="M146.8,150.13a11,11,0,0,1,2.41,3.35,10.65,10.65,0,0,1,1.45,3.87,36.2,36.2,0,0,1-1.91-3.62A34,34,0,0,1,146.8,150.13Z" style="fill:#263238"></path><path d="M148.51,160.74s-4.92-6.8-13.61-1.53C134.9,159.21,141.77,164.53,148.51,160.74Z" style="fill:#32825F"></path><path d="M138.61,159.15a14.31,14.31,0,0,1,5,.23,14.68,14.68,0,0,1,4.83,1.45c-.05.15-2.2-.48-4.92-.94S138.6,159.3,138.61,159.15Z" style="fill:#263238"></path><path d="M157,168.08s-6.17-8.57,3.58-16.86C160.6,151.22,164.23,161.54,157,168.08Z" style="fill:#32825F"></path><path d="M159.05,155.62c.15,0-.62,2.77-1.13,6.2s-.61,6.26-.77,6.25a20.94,20.94,0,0,1,.25-6.33A21.31,21.31,0,0,1,159.05,155.62Z" style="fill:#263238"></path><path d="M119.54,139.66s-6.29-2.74-10.21,4.58C109.33,144.24,116.37,145.13,119.54,139.66Z" style="fill:#32825F"></path><path d="M111.91,142.66a10.66,10.66,0,0,1,3.62-2,10.76,10.76,0,0,1,4-.94,37.76,37.76,0,0,1-3.83,1.43A36.69,36.69,0,0,1,111.91,142.66Z" style="fill:#263238"></path><path d="M126.09,125.67s3.83-9.52-7.29-15.07C118.8,110.6,117.78,121.17,126.09,125.67Z" style="fill:#32825F"></path><path d="M121.28,114.39a19.71,19.71,0,0,1,3,5.38,20.27,20.27,0,0,1,1.7,5.92c-.15,0-.89-2.61-2.18-5.72S121.15,114.47,121.28,114.39Z" style="fill:#263238"></path><path d="M119.92,124.71s0-8.7-10.47-9.57C109.45,115.14,112,123.78,119.92,124.71Z" style="fill:#32825F"></path><path d="M112.59,117.34a21.81,21.81,0,0,1,7.24,7.43c-.13.09-1.55-1.75-3.55-3.79S112.49,117.47,112.59,117.34Z" style="fill:#263238"></path><path d="M132.71,131.33s7.33-4.69,2.39-14C135.1,117.34,129.19,124.13,132.71,131.33Z" style="fill:#32825F"></path><path d="M134.94,121.18a15.22,15.22,0,0,1-.55,5.19,15,15,0,0,1-1.78,4.91c-.14-.05.64-2.24,1.28-5S134.79,121.16,134.94,121.18Z" style="fill:#263238"></path><path d="M113.24,125.82s-5.35-6.86-14.15-1.08C99.09,124.74,106.4,130,113.24,125.82Z" style="fill:#32825F"></path><path d="M102.92,124.54a15.51,15.51,0,0,1,5.23.07,15.41,15.41,0,0,1,5,1.31c0,.15-2.29-.43-5.12-.8S102.93,124.69,102.92,124.54Z" style="fill:#263238"></path><path d="M122.77,133.05s-6.22-6.09-14.16.82C108.61,133.87,116.55,138.1,122.77,133.05Z" style="fill:#32825F"></path><path d="M112.38,133.16a15.21,15.21,0,0,1,5.18-.64,15.52,15.52,0,0,1,5.19.63c0,.15-2.34-.11-5.19-.11S112.4,133.31,112.38,133.16Z" style="fill:#263238"></path><path d="M187.92,162.59s-9.23.66-9.34,11.87C178.58,174.46,187.56,171.11,187.92,162.59Z" style="fill:#32825F"></path><path d="M180.67,171a17.28,17.28,0,0,1,3.17-4.57,17,17,0,0,1,4.15-3.69c.1.11-1.75,1.76-3.76,4S180.8,171,180.67,171Z" style="fill:#263238"></path><path d="M204.49,147.58s8,1.39,10.48-8.16C215,139.42,206.6,140.38,204.49,147.58Z" style="fill:#32825F"></path><path d="M212.44,142a19.61,19.61,0,0,1-8,5.51c-.07-.14,1.84-1.16,4-2.68S212.34,141.86,212.44,142Z" style="fill:#263238"></path><path d="M210.64,120.8s1.26-8.82,12-8.15C222.66,112.65,218.84,121,210.64,120.8Z" style="fill:#32825F"></path><path d="M219.15,114.42c.08.13-2,1.35-4.28,3.13s-4,3.42-4.15,3.32a22.5,22.5,0,0,1,8.43-6.45Z" style="fill:#263238"></path><path d="M236.57,141.27s-9.32-5.79-3.23-17.6C233.34,123.67,240.9,132.14,236.57,141.27Z" style="fill:#32825F"></path><path d="M233.59,128.5c.16,0,.49,2.9,1.35,6.4s1.9,6.25,1.75,6.31a22.62,22.62,0,0,1-2.25-6.18A22.12,22.12,0,0,1,233.59,128.5Z" style="fill:#263238"></path><path d="M229.76,76.28s3.39-13.87-13-19.31C216.74,57,217.42,71.73,229.76,76.28Z" style="fill:#32825F"></path><path d="M220.9,61.7a10.09,10.09,0,0,1,1.68,1.87,46.32,46.32,0,0,1,3.41,5,47.33,47.33,0,0,1,2.76,5.4,10.22,10.22,0,0,1,.84,2.36,14.72,14.72,0,0,1-1.17-2.21c-.69-1.38-1.68-3.26-2.88-5.28s-2.38-3.79-3.26-5.05A15.44,15.44,0,0,1,220.9,61.7Z" style="fill:#263238"></path><path d="M238.41,171.63s-6.63,1.56-9.16-6.28C229.25,165.35,236.28,165.73,238.41,171.63Z" style="fill:#32825F"></path><path d="M231.49,167.35a37.74,37.74,0,0,1,3.45,2.12,34.65,34.65,0,0,1,3.49,2.08,10.5,10.5,0,0,1-3.75-1.63A10.19,10.19,0,0,1,231.49,167.35Z" style="fill:#263238"></path><path d="M239.08,125.51s3.49-6.91-4.51-11.79C234.57,113.72,233.12,121.59,239.08,125.51Z" style="fill:#32825F"></path><path d="M236.19,116.72a12.92,12.92,0,0,1,2,4.22,13,13,0,0,1,.84,4.58c-.15,0-.56-2-1.33-4.42S236.06,116.79,236.19,116.72Z" style="fill:#263238"></path><path d="M229.7,60s3.49-6.91-4.51-11.79C225.19,48.2,223.74,56.07,229.7,60Z" style="fill:#32825F"></path><path d="M226.81,51.2a12.92,12.92,0,0,1,2,4.22,13,13,0,0,1,.84,4.57c-.16,0-.56-2-1.34-4.41S226.67,51.27,226.81,51.2Z" style="fill:#263238"></path><path d="M205.54,77.76s2.93-13-12.51-17.83C193,59.93,193.92,73.72,205.54,77.76Z" style="fill:#32825F"></path><path d="M197,64.28A8.62,8.62,0,0,1,198.61,66a44.69,44.69,0,0,1,5.95,9.62,9.34,9.34,0,0,1,.82,2.21,12.4,12.4,0,0,1-1.15-2c-.67-1.27-1.62-3-2.78-4.88s-2.29-3.5-3.13-4.67A12.75,12.75,0,0,1,197,64.28Z" style="fill:#263238"></path><path d="M209.76,108.51s5.68-10.46,18.85-4.62C228.61,103.89,219.92,112.61,209.76,108.51Z" style="fill:#32825F"></path><path d="M223.39,104.47c0,.16-3.11.69-6.85,1.85s-6.64,2.45-6.71,2.31a7.45,7.45,0,0,1,1.84-1,38.08,38.08,0,0,1,9.64-3A7.48,7.48,0,0,1,223.39,104.47Z" style="fill:#263238"></path><path d="M196.68,176s-7.1-4-12.59,4.21C184.09,180.25,192.3,182.12,196.68,176Z" style="fill:#32825F"></path><path d="M187.32,178.68a14,14,0,0,1,4.52-1.86,13.62,13.62,0,0,1,4.84-.68c0,.15-2.13.48-4.7,1.18S187.38,178.82,187.32,178.68Z" style="fill:#263238"></path><path d="M212.14,164.79s5.51-9.45,17.45-3.72C229.59,161.07,221.36,168.84,212.14,164.79Z" style="fill:#32825F"></path><path d="M224.78,161.46c0,.16-2.88.57-6.34,1.53s-6.17,2.06-6.23,1.92a21.81,21.81,0,0,1,6.09-2.42A22.27,22.27,0,0,1,224.78,161.46Z" style="fill:#263238"></path><path d="M225.78,144.78s5.71,5.81-.75,13.25C225,158,221.06,150.6,225.78,144.78Z" style="fill:#32825F"></path><path d="M225.69,154.5c-.15,0,.09-2.18.09-4.85s-.24-4.83-.09-4.85a14.07,14.07,0,0,1,.61,4.85A13.79,13.79,0,0,1,225.69,154.5Z" style="fill:#263238"></path><path d="M134.06,175.76s-3.71-5.47,2.53-10.47C136.59,165.29,138.67,171.8,134.06,175.76Z" style="fill:#32825F"></path><path d="M135.54,168a30.65,30.65,0,0,1-.72,3.87,33.39,33.39,0,0,1-.68,3.88,9.93,9.93,0,0,1,.17-4A10.16,10.16,0,0,1,135.54,168Z" style="fill:#263238"></path><path d="M149.5,170.68s-5.71,3.33-10.28-3.24C139.22,167.44,145.86,165.8,149.5,170.68Z" style="fill:#32825F"></path><path d="M141.87,168.67a33.43,33.43,0,0,1,3.81,1,33.64,33.64,0,0,1,3.82.95,10.26,10.26,0,0,1-3.95-.44A10.08,10.08,0,0,1,141.87,168.67Z" style="fill:#263238"></path><path d="M105.4,190.82s3.86-6.3-3.37-11.56C102,179.26,100,186.63,105.4,190.82Z" style="fill:#32825F"></path><path d="M103.34,182.24a17.28,17.28,0,0,1,2,8.58c-.15,0-.39-1.95-.93-4.31S103.2,182.29,103.34,182.24Z" style="fill:#263238"></path><path d="M152.26,189.61s-1.12-7.72-10.55-7.11C141.71,182.5,145.08,189.84,152.26,189.61Z" style="fill:#32825F"></path><path d="M144.79,184a5.59,5.59,0,0,1,1.75.9,42.42,42.42,0,0,1,3.81,2.8c2.88,2.33,5,4.52,4.83,4.63a8.22,8.22,0,0,1-1.54-1.21l-3.62-3c-1.42-1.16-2.73-2.19-3.69-2.91A9.9,9.9,0,0,1,144.79,184Z" style="fill:#263238"></path><path d="M161,189.43s-.89-6.09-8.32-5.61C152.67,183.82,155.33,189.61,161,189.43Z" style="fill:#32825F"></path><path d="M155.1,185a4.66,4.66,0,0,1,1.68.93,44.53,44.53,0,0,1,3.59,2.9A29.86,29.86,0,0,1,165,193.5c-.1.09-2.25-1.87-4.95-4.24-1.35-1.18-2.57-2.25-3.48-3A15,15,0,0,1,155.1,185Z" style="fill:#263238"></path><path d="M178.12,188.92s5.06-3.5,1.33-9.95C179.45,179,175.45,183.92,178.12,188.92Z" style="fill:#32825F"></path><path d="M179.44,181.69a4.79,4.79,0,0,1-.09,1.92c-.18,1.17-.54,2.77-1,4.51a29.76,29.76,0,0,1-2.1,6.18c-.12-.05.67-2.84,1.6-6.32.46-1.73.87-3.3,1.14-4.44A14.66,14.66,0,0,1,179.44,181.69Z" style="fill:#263238"></path><path d="M171.33,149.13s-5.84,2-4.06,9.18C167.27,158.31,172.5,154.68,171.33,149.13Z" style="fill:#32825F"></path><path d="M168,155.71a4.61,4.61,0,0,1,.63-1.82,45.17,45.17,0,0,1,2.22-4,29.83,29.83,0,0,1,3.74-5.35c.11.08-1.44,2.54-3.3,5.62-.93,1.53-1.76,2.93-2.34,3.95A15.18,15.18,0,0,1,168,155.71Z" style="fill:#263238"></path><path d="M172.23,139s-1.9-5.85-9.15-4.12C163.08,134.83,166.68,140.08,172.23,139Z" style="fill:#32825F"></path><path d="M165.68,135.62a4.54,4.54,0,0,1,1.81.63c1.07.51,2.5,1.31,4,2.25,3.07,1.89,5.41,3.66,5.31,3.79s-2.52-1.46-5.58-3.34c-1.53-.94-2.92-1.78-3.94-2.37A15.16,15.16,0,0,1,165.68,135.62Z" style="fill:#263238"></path><path d="M182.46,123.09s-5.87-1.85-8.67,5C173.79,128.14,180.15,128.26,182.46,123.09Z" style="fill:#32825F"></path><path d="M175.94,126.49a4.59,4.59,0,0,1,1.57-1.11,45,45,0,0,1,4.18-2,29.69,29.69,0,0,1,6.17-2.13c0,.12-2.66,1.21-6,2.61-1.65.7-3.14,1.34-4.21,1.83A18.12,18.12,0,0,1,175.94,126.49Z" style="fill:#263238"></path><path d="M145.2,190.44s-4.91-6.06-12.71-.71C132.49,189.73,139.14,194.31,145.2,190.44Z" style="fill:#32825F"></path><path d="M135.93,189.48a13,13,0,0,1,4.69-.06,13.32,13.32,0,0,1,4.55,1.11c0,.15-2.07-.31-4.61-.59S135.93,189.63,135.93,189.48Z" style="fill:#263238"></path><path d="M152,194.37s-7.32-2.7-11.29,5.88C140.73,200.25,148.79,200.79,152,194.37Z" style="fill:#32825F"></path><path d="M143.55,198.28a13.47,13.47,0,0,1,4-2.45,13.28,13.28,0,0,1,4.49-1.37c0,.15-1.94.79-4.27,1.85S143.64,198.41,143.55,198.28Z" style="fill:#263238"></path><path d="M218,188.14s-8.86,2-7.35,12.84C210.64,201,218.86,196.45,218,188.14Z" style="fill:#32825F"></path><path d="M212.17,197.28a16.36,16.36,0,0,1,2.4-4.88,16.55,16.55,0,0,1,3.5-4.18c.11.1-1.44,2-3.06,4.47S212.31,197.35,212.17,197.28Z" style="fill:#263238"></path><path d="M164.94,236.89s-11.62-4-17.55,9.65C147.39,246.54,160.08,247.11,164.94,236.89Z" style="fill:#32825F"></path><path d="M151.76,243.34a7.61,7.61,0,0,1,1.72-1.31,39.71,39.71,0,0,1,9.39-4.48A7.74,7.74,0,0,1,165,237c0,.15-3.08,1.17-6.73,2.91S151.84,243.47,151.76,243.34Z" style="fill:#263238"></path><path d="M168.21,240.14s-7.12,3.63-3.44,12.58C164.77,252.72,170.79,247,168.21,240.14Z" style="fill:#32825F"></path><path d="M165.26,249.22a19.24,19.24,0,0,1,3-9c.13.07-.77,2-1.6,4.49S165.41,249.25,165.26,249.22Z" style="fill:#263238"></path><path d="M185.81,160.63s-7.39-7.36-17,.84C168.81,161.47,178.3,166.63,185.81,160.63Z" style="fill:#32825F"></path><path d="M173.34,160.65a9.45,9.45,0,0,1,2.65-.37,63.21,63.21,0,0,1,6.45,0c2.52.12,4.79.32,6.43.54a10.72,10.72,0,0,1,2.63.51,19.94,19.94,0,0,1-2.67-.14c-1.64-.13-3.91-.27-6.41-.39s-4.78-.18-6.42-.17A23.28,23.28,0,0,1,173.34,160.65Z" style="fill:#263238"></path><path d="M207.84,160.48s-2.16-12.39,12.58-16.2C220.42,144.28,219,157.2,207.84,160.48Z" style="fill:#32825F"></path><path d="M216.48,148.18c.06.06-.73,1-1.88,2.61s-2.66,3.89-4.28,6.44-3,4.9-4,6.61a28.61,28.61,0,0,1-1.67,2.74,14.23,14.23,0,0,1,1.35-2.92c.92-1.76,2.3-4.14,3.91-6.71s3.19-4.82,4.43-6.38A12.34,12.34,0,0,1,216.48,148.18Z" style="fill:#263238"></path><path d="M211.51,129.21s4.17-11.86,18.89-8C230.4,121.23,222.8,131.79,211.51,129.21Z" style="fill:#32825F"></path><path d="M225.05,122.71c0,.08-1.12.5-2.9,1.36s-4.23,2.09-6.89,3.52-5,2.79-6.75,3.79a26.52,26.52,0,0,1-2.8,1.58,16.17,16.17,0,0,1,2.61-1.89c1.67-1.08,4-2.49,6.69-3.94s5.14-2.64,7-3.4A13,13,0,0,1,225.05,122.71Z" style="fill:#263238"></path><path d="M157.28,107.07s-1.59-13.47-18-12.85C139.29,94.22,144.8,107.12,157.28,107.07Z" style="fill:#32825F"></path><path d="M144.56,97a9.32,9.32,0,0,1,2.12,1.1,44.68,44.68,0,0,1,8.94,7.2,9.45,9.45,0,0,1,1.53,1.83,13.7,13.7,0,0,1-1.79-1.57c-1.07-1-2.57-2.34-4.31-3.74s-3.37-2.58-4.57-3.41A13.4,13.4,0,0,1,144.56,97Z" style="fill:#263238"></path><path d="M177.59,96.39s3-12.27-11.6-17C166,79.35,166.65,92.39,177.59,96.39Z" style="fill:#32825F"></path><path d="M169.7,83.52a7.94,7.94,0,0,1,1.5,1.63,42,42,0,0,1,5.51,9.19,8,8,0,0,1,.73,2.1c-.14.06-1.49-3-3.63-6.6S169.57,83.62,169.7,83.52Z" style="fill:#263238"></path><path d="M195.35,207.72s8.2,1.65,11-8.09C206.34,199.63,197.72,200.39,195.35,207.72Z" style="fill:#32825F"></path><path d="M203.67,202.18a14.4,14.4,0,0,1-3.84,3.24,14.24,14.24,0,0,1-4.51,2.2c-.07-.14,1.93-1.14,4.23-2.64S203.57,202.07,203.67,202.18Z" style="fill:#263238"></path><path d="M121.87,236.44s-6,5.82.44,13.63C122.31,250.07,126.57,242.54,121.87,236.44Z" style="fill:#32825F"></path><path d="M121.72,246.43a14.27,14.27,0,0,1-.49-5,14.42,14.42,0,0,1,.74-5c.15,0-.16,2.23-.22,5S121.87,246.41,121.72,246.43Z" style="fill:#263238"></path><path d="M136,233.33s5.12,6.6,13.59,1.06C149.54,234.39,142.52,229.33,136,233.33Z" style="fill:#32825F"></path><path d="M145.86,234.58a14.73,14.73,0,0,1-5-.06,14.54,14.54,0,0,1-4.86-1.28c0-.15,2.21.4,4.93.76S145.85,234.42,145.86,234.58Z" style="fill:#263238"></path><path d="M131.82,234.2s-3.31,12.89,11.92,18.13C143.74,252.33,143.27,238.57,131.82,234.2Z" style="fill:#32825F"></path><path d="M139.91,247.89a9.7,9.7,0,0,1-1.55-1.76,44.73,44.73,0,0,1-3.13-4.7,44,44,0,0,1-2.51-5.06,8.31,8.31,0,0,1-.74-2.22,12.6,12.6,0,0,1,1.08,2.07c.63,1.29,1.53,3.06,2.62,4.95s2.18,3.56,3,4.75A11.6,11.6,0,0,1,139.91,247.89Z" style="fill:#263238"></path><path d="M98,198.29s-6.26-5.54-13.55,1.47C84.4,199.76,92.22,203.44,98,198.29Z" style="fill:#32825F"></path><path d="M88,198.89a14.54,14.54,0,0,1,4.94-.86,14.6,14.6,0,0,1,5,.36c0,.16-2.24,0-5,.16S88,199,88,198.89Z" style="fill:#263238"></path><path d="M117.35,236.19s-9.89-2.27-14,10.32C103.32,246.51,113.9,245.67,117.35,236.19Z" style="fill:#32825F"></path><path d="M106.77,243.24a21.23,21.23,0,0,1,4.92-4.05,21,21,0,0,1,5.7-2.87c.06.14-2.49,1.39-5.41,3.31S106.87,243.36,106.77,243.24Z" style="fill:#263238"></path><path d="M107.8,226.07s3.29-10.61-7.79-13.57A13.7,13.7,0,0,0,107.8,226.07Z" style="fill:#32825F"></path><path d="M102,214.74a21.43,21.43,0,0,1,3.46,5.36,21,21,0,0,1,2.19,6c-.15,0-1.09-2.63-2.66-5.76S101.89,214.83,102,214.74Z" style="fill:#263238"></path><path d="M100.75,158.57s-9.32-11.29-20.59-1.23A18,18,0,0,0,100.75,158.57Z" style="fill:#32825F"></path><path d="M84.08,156.75a10,10,0,0,1,2.46-.18,47.56,47.56,0,0,1,5.94.33A45,45,0,0,1,98.33,158a9.64,9.64,0,0,1,2.35.76,15,15,0,0,1-2.43-.4c-1.48-.29-3.54-.64-5.83-.91s-4.37-.41-5.89-.48A13.63,13.63,0,0,1,84.08,156.75Z" style="fill:#263238"></path><path d="M96.68,184.8s3.67-8.89-5.64-12.3A11.84,11.84,0,0,0,96.68,184.8Z" style="fill:#32825F"></path><path d="M92.59,174.58a23.72,23.72,0,0,1,4,10.22c-.15,0-.77-2.34-1.87-5.15S92.46,174.66,92.59,174.58Z" style="fill:#263238"></path><path d="M93.47,231S79,224.18,72.55,239.41A19.73,19.73,0,0,0,93.47,231Z" style="fill:#32825F"></path><path d="M76.14,237a12,12,0,0,1,2.35-1.32,52.13,52.13,0,0,1,6-2.45,50.13,50.13,0,0,1,6.28-1.7,12.43,12.43,0,0,1,2.67-.37,17.46,17.46,0,0,1-2.59.73c-1.6.41-3.8,1-6.2,1.83s-4.51,1.66-6,2.29A16.59,16.59,0,0,1,76.14,237Z" style="fill:#263238"></path><path d="M77.63,223.42s-12.5-3.28-15.38,9.73A15.92,15.92,0,0,0,77.63,223.42Z" style="fill:#32825F"></path><path d="M64.75,230.71a7.64,7.64,0,0,1,1.66-1.42,41.38,41.38,0,0,1,4.42-2.83,39.45,39.45,0,0,1,4.75-2.24,7.82,7.82,0,0,1,2.08-.65c0,.15-3,1.36-6.58,3.35S64.85,230.83,64.75,230.71Z" style="fill:#263238"></path><path d="M89,180.23s-9.24-8.94-18.09,1A15.86,15.86,0,0,0,89,180.23Z" style="fill:#32825F"></path><path d="M74.25,180.27a8.06,8.06,0,0,1,2.12-.42,41,41,0,0,1,5.22-.3,39.08,39.08,0,0,1,5.21.37,8.19,8.19,0,0,1,2.12.45c0,.16-3.29-.29-7.33-.3S74.27,180.43,74.25,180.27Z" style="fill:#263238"></path><path d="M85.8,219.62s-4.41-14.08-18.74-9A18.16,18.16,0,0,0,85.8,219.62Z" style="fill:#32825F"></path><path d="M70.94,211.59a9.65,9.65,0,0,1,2.36.76,47.65,47.65,0,0,1,5.42,2.57,46.39,46.39,0,0,1,5,3.22,9.74,9.74,0,0,1,1.9,1.6,15.06,15.06,0,0,1-2.11-1.3c-1.28-.83-3.06-1.94-5.1-3.07s-3.92-2-5.3-2.68A13.48,13.48,0,0,1,70.94,211.59Z" style="fill:#263238"></path><path d="M101.24,234.72s-7.3,2.87-4,10.27A9.66,9.66,0,0,0,101.24,234.72Z" style="fill:#32825F"></path><path d="M97.54,242.9a12.61,12.61,0,0,1,1.36-4.3,12.2,12.2,0,0,1,2.41-3.82c.12.09-.91,1.81-1.93,4S97.69,242.94,97.54,242.9Z" style="fill:#263238"></path><path d="M111.59,201s-7.45-2.43-9.66,5.35A9.67,9.67,0,0,0,111.59,201Z" style="fill:#32825F"></path><path d="M103.53,204.91a12.46,12.46,0,0,1,3.79-2.45,11.9,11.9,0,0,1,4.28-1.41c0,.14-1.84.81-4.06,1.88A43.34,43.34,0,0,1,103.53,204.91Z" style="fill:#263238"></path><path d="M165.93,173.12s-4-5.25,1.55-9.2A8.16,8.16,0,0,1,165.93,173.12Z" style="fill:#32825F"></path><path d="M166.82,165.59a26.79,26.79,0,0,1-.41,3.76,29,29,0,0,1-.4,3.76,9.36,9.36,0,0,1-.12-3.82A9.52,9.52,0,0,1,166.82,165.59Z" style="fill:#263238"></path><path d="M170.1,180.05s-3.91-8.7,5.21-12.38A11.74,11.74,0,0,1,170.1,180.05Z" style="fill:#32825F"></path><path d="M173.84,169.78c.13.08-.94,2.27-1.93,5.1s-1.55,5.2-1.7,5.17a23.42,23.42,0,0,1,3.63-10.27Z" style="fill:#263238"></path><path d="M135.82,182.79s-7.45-2.43-9.66,5.35A9.67,9.67,0,0,0,135.82,182.79Z" style="fill:#32825F"></path><path d="M127.76,186.75a17.84,17.84,0,0,1,8.07-3.87c0,.15-1.84.82-4.06,1.89S127.85,186.87,127.76,186.75Z" style="fill:#263238"></path><path d="M121.18,226s7.19-3.12,3.68-10.4A9.64,9.64,0,0,0,121.18,226Z" style="fill:#32825F"></path><path d="M124.58,217.66a12.17,12.17,0,0,1-1.2,4.34,12,12,0,0,1-2.27,3.9c-.13-.08.84-1.83,1.79-4.1S124.44,217.62,124.58,217.66Z" style="fill:#263238"></path><path d="M86.57,190.78s-9.6-7-16.47,3.15A14.68,14.68,0,0,0,86.57,190.78Z" style="fill:#32825F"></path><path d="M73.07,192.68A6.69,6.69,0,0,1,75,192a36.79,36.79,0,0,1,4.75-.94,33.87,33.87,0,0,1,4.83-.31,6.71,6.71,0,0,1,2,.16c0,.16-3.05.17-6.76.67S73.11,192.83,73.07,192.68Z" style="fill:#263238"></path><path d="M98.3,152s-10.4-2.64-7.25-13.26A13.2,13.2,0,0,1,98.3,152Z" style="fill:#32825F"></path><path d="M91.88,141.48c.14-.06,1.32,2.43,3.11,5.28s3.51,5,3.4,5.11A20,20,0,0,1,94.55,147,20.53,20.53,0,0,1,91.88,141.48Z" style="fill:#263238"></path><path d="M110.77,138.09s-6.52-4.34-10.73,2.56A9.64,9.64,0,0,0,110.77,138.09Z" style="fill:#32825F"></path><path d="M102,139.74a12.2,12.2,0,0,1,4.3-1.34,12.08,12.08,0,0,1,4.5-.22c0,.15-2,.29-4.41.73S102,139.88,102,139.74Z" style="fill:#263238"></path><path d="M107.35,130.77s-6.53-4.34-10.73,2.57A9.65,9.65,0,0,0,107.35,130.77Z" style="fill:#32825F"></path><path d="M98.53,132.43a12.42,12.42,0,0,1,4.3-1.35,12.39,12.39,0,0,1,4.51-.22c0,.15-2,.3-4.41.73S98.58,132.57,98.53,132.43Z" style="fill:#263238"></path><path d="M127.72,112.62s-.53-7.82-8.57-7A9.66,9.66,0,0,0,127.72,112.62Z" style="fill:#32825F"></path><path d="M121,106.63a17.61,17.61,0,0,1,6.6,6c-.11.1-1.44-1.4-3.26-3S121,106.75,121,106.63Z" style="fill:#263238"></path><path d="M149.5,117s-6.52-4.34-10.73,2.57A9.65,9.65,0,0,0,149.5,117Z" style="fill:#32825F"></path><path d="M140.69,118.66a17.69,17.69,0,0,1,8.8-1.57,42.52,42.52,0,0,1-4.41.73C142.66,118.25,140.73,118.8,140.69,118.66Z" style="fill:#263238"></path><path d="M163.74,83.36s-8.77-5.23-3-14A12.57,12.57,0,0,1,163.74,83.36Z" style="fill:#32825F"></path><path d="M160.72,72.07c.15,0,.56,2.56,1.42,5.65s1.84,5.51,1.7,5.57a18.5,18.5,0,0,1-2.2-5.43A18.85,18.85,0,0,1,160.72,72.07Z" style="fill:#263238"></path><path d="M80.1,208.42s-6.26-4.71-1.15-11A9.66,9.66,0,0,1,80.1,208.42Z" style="fill:#32825F"></path><path d="M78.72,199.55c.15,0,.28,2,.68,4.42s.93,4.36.78,4.41a17.91,17.91,0,0,1-1.46-8.83Z" style="fill:#263238"></path><path d="M72.71,208.23s2.09-7.25-5.47-9.11A9.3,9.3,0,0,0,72.71,208.23Z" style="fill:#32825F"></path><path d="M68.64,200.61a12,12,0,0,1,2.49,3.56,11.58,11.58,0,0,1,1.49,4.07c-.14,0-.85-1.74-2-3.83A37.4,37.4,0,0,1,68.64,200.61Z" style="fill:#263238"></path><path d="M95,167.48s-8.24-7.33-15.47,1.46A13.59,13.59,0,0,0,95,167.48Z" style="fill:#32825F"></path><path d="M82.4,168.05a21.22,21.22,0,0,1,6.27-.92,20.82,20.82,0,0,1,6.32.48c0,.15-2.84-.09-6.31,0S82.42,168.2,82.4,168.05Z" style="fill:#263238"></path><path d="M118.31,198.05s-7.65,1.66-5.63,9.49A9.66,9.66,0,0,0,118.31,198.05Z" style="fill:#32825F"></path><path d="M113.36,205.53a17.66,17.66,0,0,1,5-7.41c.11.1-1.18,1.63-2.55,3.68S113.5,205.59,113.36,205.53Z" style="fill:#263238"></path><path d="M134.29,206.38s-1.27,7.74,6.75,8.73A9.66,9.66,0,0,0,134.29,206.38Z" style="fill:#32825F"></path><path d="M139.42,213.74a12.48,12.48,0,0,1-3-3.37,12.15,12.15,0,0,1-2.05-4c.13-.07,1.08,1.69,2.48,3.72S139.54,213.64,139.42,213.74Z" style="fill:#263238"></path><path d="M124.36,200.39s-5,11.53,7.09,16.21A15.5,15.5,0,0,0,124.36,200.39Z" style="fill:#32825F"></path><path d="M129.46,213.84a8,8,0,0,1-1.12-1.8,40.2,40.2,0,0,1-3.53-9.56,7.84,7.84,0,0,1-.31-2.1c.16,0,.88,3.11,2.26,6.81S129.6,213.76,129.46,213.84Z" style="fill:#263238"></path><path d="M97.86,220.76s1.76-11.85-13.44-15.57C84.42,205.19,86.39,217.57,97.86,220.76Z" style="fill:#32825F"></path><path d="M88.59,209a8.42,8.42,0,0,1,1.67,1.45,41.64,41.64,0,0,1,6.49,8.43,8.08,8.08,0,0,1,1,2c-.14.08-1.83-2.82-4.36-6.09S88.47,209.06,88.59,209Z" style="fill:#263238"></path><path d="M162.43,221.4s2.64-9.1-8.08-13.17C154.35,208.23,154.38,218,162.43,221.4Z" style="fill:#32825F"></path><path d="M157,211.48a24.34,24.34,0,0,1,5.35,10c-.15,0-1.07-2.31-2.55-5S156.85,211.57,157,211.48Z" style="fill:#263238"></path><path d="M168.14,199.55s-8-5-14.88,4.18C153.26,203.73,162.7,206.37,168.14,199.55Z" style="fill:#32825F"></path><path d="M157.1,202.09a17.49,17.49,0,0,1,5.38-1.86,17.68,17.68,0,0,1,5.65-.57c0,.16-2.51.4-5.54,1.08S157.16,202.23,157.1,202.09Z" style="fill:#263238"></path><path d="M113.4,225.33s-5.39-10.26,6.47-17.76C119.87,207.57,122.22,219.33,113.4,225.33Z" style="fill:#32825F"></path><path d="M117.51,212.11c.15.06-1.12,2.9-2.2,6.55s-1.61,6.7-1.77,6.68a7.57,7.57,0,0,1,.17-2,35.25,35.25,0,0,1,1.1-4.79,34.85,34.85,0,0,1,1.72-4.61A7.1,7.1,0,0,1,117.51,212.11Z" style="fill:#263238"></path><path d="M102.67,196.07s-1.3-11.58-15.39-11.14C87.28,184.93,91.94,196,102.67,196.07Z" style="fill:#32825F"></path><path d="M91.8,187.38a7.14,7.14,0,0,1,1.82.93,38,38,0,0,1,4,2.87,36.1,36.1,0,0,1,3.62,3.37,7.16,7.16,0,0,1,1.28,1.6c-.11.11-2.25-2.15-5.23-4.57S91.72,187.51,91.8,187.38Z" style="fill:#263238"></path><path d="M118.25,162.43s-1.5-12.88-17.18-12.32C101.07,150.11,106.31,162.46,118.25,162.43Z" style="fill:#32825F"></path><path d="M106.1,152.82a8.56,8.56,0,0,1,2,1,42.66,42.66,0,0,1,4.5,3.18,41.94,41.94,0,0,1,4.05,3.73,8.47,8.47,0,0,1,1.45,1.76c-.12.1-2.51-2.41-5.83-5.09S106,153,106.1,152.82Z" style="fill:#263238"></path><polygon points="177.68 200.62 163.71 192.08 145.68 191.11 145.68 192.39 162.76 193.91 174.75 202.18 180.11 208.95 177.68 200.62" style="fill:#263238"></polygon><path d="M323.09,210.13s11.55,5.26,6.32,19.71C329.41,229.84,319.48,221.25,323.09,210.13Z" style="fill:#32825F"></path><path d="M328.4,224.33c-.15,0-.95-3.26-2.46-7.15s-3.12-6.89-3-7a7.86,7.86,0,0,1,1.2,1.88,38.27,38.27,0,0,1,2.26,4.89,39.26,39.26,0,0,1,1.61,5.14A8,8,0,0,1,328.4,224.33Z" style="fill:#263238"></path><path d="M325.44,221.26a11.33,11.33,0,0,1-.2-3.1,11.54,11.54,0,0,1,.12-3.11,13.57,13.57,0,0,1,.08,6.21Z" style="fill:#263238"></path><path d="M317.2,203.69s1,13.21-14.87,15.65C302.33,219.34,305.22,206,317.2,203.69Z" style="fill:#32825F"></path><path d="M306.86,215.66c-.1-.11,2.52-2.49,5.33-5.82s4.74-6.31,4.87-6.22a9.18,9.18,0,0,1-1.12,2,44.64,44.64,0,0,1-3.35,4.51,42.22,42.22,0,0,1-3.9,4.05A9.11,9.11,0,0,1,306.86,215.66Z" style="fill:#263238"></path><path d="M281.66,219.32s11.89-5.83,20.08,8C301.74,227.27,288.24,229.59,281.66,219.32Z" style="fill:#32825F"></path><path d="M296.63,224.43c-.07.15-3.26-1.4-7.39-2.76s-7.62-2-7.59-2.19a8.45,8.45,0,0,1,2.31.28,42.3,42.3,0,0,1,5.44,1.42,42.8,42.8,0,0,1,5.21,2.1A9,9,0,0,1,296.63,224.43Z" style="fill:#263238"></path><path d="M285.62,176s2.91-11.35,16.89-8.94C302.51,167,296.31,177.44,285.62,176Z" style="fill:#32825F"></path><path d="M297.67,168.83c.06.15-2.81,1.41-6.1,3.41s-5.75,3.95-5.85,3.82a7,7,0,0,1,1.5-1.41,38.68,38.68,0,0,1,4.08-2.85,36.73,36.73,0,0,1,4.42-2.29A7.5,7.5,0,0,1,297.67,168.83Z" style="fill:#263238"></path><path d="M363.65,161.65s1.29,11,14.65,10.46C378.3,172.11,373.81,161.61,363.65,161.65Z" style="fill:#32825F"></path><path d="M374,169.82a7.35,7.35,0,0,1-2-1.12,39.94,39.94,0,0,1-4.27-3.49c-1.57-1.47-2.92-2.88-3.86-3.92a9.46,9.46,0,0,1-1.43-1.78c.12-.11,2.52,2.4,5.65,5.31,1.56,1.46,3,2.72,4.13,3.58A17.3,17.3,0,0,1,374,169.82Z" style="fill:#263238"></path><path d="M375.11,177.39s10.45-3.55,15.75,8.72C390.86,186.11,379.45,186.58,375.11,177.39Z" style="fill:#32825F"></path><path d="M386.94,183.22c-.09.13-2.57-1.47-5.84-3s-6.07-2.51-6-2.66A5.93,5.93,0,0,1,377,178a34.61,34.61,0,0,1,4.36,1.74,35.06,35.06,0,0,1,4.08,2.31A6.44,6.44,0,0,1,386.94,183.22Z" style="fill:#263238"></path><path d="M380.28,172.05s6.26-9.9,18.81-3.31C399.09,168.74,390,176.74,380.28,172.05Z" style="fill:#32825F"></path><path d="M393.93,169c0,.15-3.1.48-6.84,1.37s-6.68,2-6.74,1.83a7.17,7.17,0,0,1,1.86-.88,37.59,37.59,0,0,1,4.76-1.46,38.23,38.23,0,0,1,4.9-.82A7.2,7.2,0,0,1,393.93,169Z" style="fill:#263238"></path><path d="M363,134.51s9.25-4.44,15.51,6.29C378.51,140.8,368,142.52,363,134.51Z" style="fill:#32825F"></path><path d="M374.57,138.58c-.07.13-2.54-1.06-5.74-2.14s-5.87-1.65-5.85-1.8a20,20,0,0,1,6,1.31A19.67,19.67,0,0,1,374.57,138.58Z" style="fill:#263238"></path><path d="M364,128.09s-10.18.56-11.84-11.66C352.14,116.43,362.4,118.84,364,128.09Z" style="fill:#32825F"></path><path d="M354.91,120c.12-.1,1.93,1.93,4.45,4.14s4.76,3.74,4.68,3.87a19.63,19.63,0,0,1-5-3.48A19.83,19.83,0,0,1,354.91,120Z" style="fill:#263238"></path><path d="M367.87,107.45s8.29-10.25-3.27-21.26C364.6,86.19,359.35,98.78,367.87,107.45Z" style="fill:#32825F"></path><path d="M366.22,91.78a8.76,8.76,0,0,1,.67,2.22,42.27,42.27,0,0,1,.89,5.52,43.72,43.72,0,0,1,.17,5.6,8.72,8.72,0,0,1-.25,2.31c-.15,0,0-3.54-.44-7.86S366.06,91.81,366.22,91.78Z" style="fill:#263238"></path><path d="M334.35,108.39s-6.49-8,2.47-16.56C336.82,91.83,341,101.61,334.35,108.39Z" style="fill:#32825F"></path><path d="M335.58,96.18c.15,0-.43,2.72-.73,6.08s-.22,6.1-.38,6.11a20.38,20.38,0,0,1-.14-6.16A20.19,20.19,0,0,1,335.58,96.18Z" style="fill:#263238"></path><path d="M291.28,85s-1-9.2,10-11.33C301.25,73.66,299.59,83.09,291.28,85Z" style="fill:#32825F"></path><path d="M298.18,76.35c.11.11-1.64,1.87-3.5,4.26s-3.16,4.5-3.3,4.43a17.11,17.11,0,0,1,2.89-4.75A17,17,0,0,1,298.18,76.35Z" style="fill:#263238"></path><path d="M308.06,78.47s-5.3-7.59,3.34-14.72C311.4,63.75,314.45,72.83,308.06,78.47Z" style="fill:#32825F"></path><path d="M310,67.58c.15,0-.54,2.42-1,5.42s-.62,5.46-.78,5.46a17.14,17.14,0,0,1,.27-5.55A17.2,17.2,0,0,1,310,67.58Z" style="fill:#263238"></path><path d="M271.92,107.62s-2.4-11.1,10.76-15.08C282.68,92.54,281.83,104.26,271.92,107.62Z" style="fill:#32825F"></path><path d="M279.27,96.21c.12.1-1.81,2.45-3.8,5.61s-3.27,5.91-3.41,5.85a6.17,6.17,0,0,1,.68-1.88,35.44,35.44,0,0,1,2.29-4.25,36.12,36.12,0,0,1,2.84-3.9A7.08,7.08,0,0,1,279.27,96.21Z" style="fill:#263238"></path><path d="M317.11,84.48s-6-8.43,7.48-21.64C324.59,62.84,327.17,74.2,317.11,84.48Z" style="fill:#32825F"></path><path d="M321.88,68.68a11.92,11.92,0,0,1-.73,2.3c-.49,1.4-1.15,3.34-1.79,5.51s-1.14,4.15-1.48,5.6a12.24,12.24,0,0,1-.61,2.33,10.43,10.43,0,0,1,.25-2.4,49.22,49.22,0,0,1,1.34-5.68,52.51,52.51,0,0,1,1.95-5.5A9.84,9.84,0,0,1,321.88,68.68Z" style="fill:#263238"></path><path d="M344.43,106.78s5.21-7.07,14.25-1.48C358.68,105.3,351.45,110.81,344.43,106.78Z" style="fill:#32825F"></path><path d="M354.81,105.2c0,.16-2.35.26-5.19.73s-5.11,1.1-5.15.95a22.16,22.16,0,0,1,10.34-1.68Z" style="fill:#263238"></path><path d="M336.74,78.19s9-8.35,20,1.72C356.71,79.91,345.32,85.57,336.74,78.19Z" style="fill:#32825F"></path><path d="M351.42,78.75c0,.16-3.28-.36-7.32-.47s-7.31.22-7.33.06A7.43,7.43,0,0,1,338.9,78a39.47,39.47,0,0,1,10.41.29A7.74,7.74,0,0,1,351.42,78.75Z" style="fill:#263238"></path><path d="M329.88,89s5.2-7.07,14.25-1.48C344.13,87.49,336.89,93,329.88,89Z" style="fill:#32825F"></path><path d="M340.26,87.39c0,.16-2.35.26-5.19.73s-5.11,1.1-5.15.95a22.1,22.1,0,0,1,10.34-1.68Z" style="fill:#263238"></path><path d="M325.58,97.34s6,6.42-1.18,14.28C324.4,111.62,320.33,103.49,325.58,97.34Z" style="fill:#32825F"></path><path d="M325.21,107.83c-.15,0,.18-2.35.25-5.23s-.14-5.22,0-5.24a15.83,15.83,0,0,1,.5,5.25A15.77,15.77,0,0,1,325.21,107.83Z" style="fill:#263238"></path><path d="M319.36,97.92s3.59,8-5.74,13.13C313.62,111.05,312.4,102,319.36,97.92Z" style="fill:#32825F"></path><path d="M315.62,107.73c-.14-.08.93-2.17,1.92-4.88s1.56-5,1.71-4.95A15.9,15.9,0,0,1,318,103,15.83,15.83,0,0,1,315.62,107.73Z" style="fill:#263238"></path><path d="M387,163.17s5.56-7.54,15.2-1.57C402.23,161.6,394.51,167.47,387,163.17Z" style="fill:#32825F"></path><path d="M398.1,161.49c0,.15-2.5.26-5.54.76s-5.44,1.18-5.49,1a23.86,23.86,0,0,1,11-1.79Z" style="fill:#263238"></path><path d="M371.62,156.55s-.82-8.92,9.87-10.78C381.49,145.77,379.7,154.87,371.62,156.55Z" style="fill:#32825F"></path><path d="M378.47,148.32c.1.11-1.62,1.78-3.47,4.06s-3.15,4.3-3.28,4.22a22.73,22.73,0,0,1,6.75-8.28Z" style="fill:#263238"></path><path d="M308.81,137.44S307,129,317,125.9C317,125.9,316.37,134.85,308.81,137.44Z" style="fill:#32825F"></path><path d="M314.4,128.71c.11.1-1.33,1.91-2.84,4.32s-2.51,4.5-2.65,4.44a15.57,15.57,0,0,1,2.21-4.72A15.16,15.16,0,0,1,314.4,128.71Z" style="fill:#263238"></path><path d="M336.78,114.9s6.74-2.12,10,5.81C346.73,120.71,339.42,120.84,336.78,114.9Z" style="fill:#32825F"></path><path d="M344.26,118.81a8.86,8.86,0,0,1-1.53-.73c-.93-.47-2.23-1.08-3.68-1.73-2.91-1.31-5.31-2.27-5.26-2.4a22,22,0,0,1,5.47,1.92,33.09,33.09,0,0,1,3.65,1.89C343.81,118.31,344.3,118.75,344.26,118.81Z" style="fill:#263238"></path><path d="M355,136.15s.88-5.59-5.78-7.21C349.25,128.94,350,134.75,355,136.15Z" style="fill:#32825F"></path><path d="M351.05,130.67c.12-.12,1.6,1.41,3,3.6a15.07,15.07,0,0,1,2.12,4.14,34.23,34.23,0,0,1-2.56-3.86C352.22,132.38,351,130.76,351.05,130.67Z" style="fill:#263238"></path><path d="M330.25,117s6.67-.17,7.53,7.87C337.78,124.91,331.1,123.13,330.25,117Z" style="fill:#32825F"></path><path d="M336,122.54c-.1.08-1.64-1.59-3.71-3.49s-3.82-3.35-3.75-3.46a15.36,15.36,0,0,1,4.1,3.07C334.76,120.58,336.16,122.44,336,122.54Z" style="fill:#263238"></path><path d="M311.77,97.05s.9,6.81-7.23,8.54C304.54,105.59,305.64,98.58,311.77,97.05Z" style="fill:#32825F"></path><path d="M306.78,103.56a34.85,34.85,0,0,1,2.48-3.25A34.81,34.81,0,0,1,311.7,97a10.77,10.77,0,0,1-2,3.6A10.89,10.89,0,0,1,306.78,103.56Z" style="fill:#263238"></path><path d="M305.29,122.31s-6.68-2.9-3.83-11.24C301.46,111.07,307.25,115.89,305.29,122.31Z" style="fill:#32825F"></path><path d="M302.1,114.21c.15,0,.68,1.84,1.59,4s1.8,3.93,1.67,4a11.68,11.68,0,0,1-2.16-3.8A11.44,11.44,0,0,1,302.1,114.21Z" style="fill:#263238"></path><path d="M305.19,88.83S310.91,85,316,91.58C316,91.58,309.26,93.67,305.19,88.83Z" style="fill:#32825F"></path><path d="M313.23,90.46a33.64,33.64,0,0,1-4-.8,37.76,37.76,0,0,1-4-.74,10.48,10.48,0,0,1,4.12.23A10.87,10.87,0,0,1,313.23,90.46Z" style="fill:#263238"></path><path d="M315.94,66s-5.9-3.52-2.23-11C313.71,55,318.53,60.21,315.94,66Z" style="fill:#32825F"></path><path d="M313.92,58a35.79,35.79,0,0,1,1,4,37.61,37.61,0,0,1,1.07,4,10.69,10.69,0,0,1-1.58-3.82A10.73,10.73,0,0,1,313.92,58Z" style="fill:#263238"></path><path d="M295.63,90.56s-.21-6.86,8-7.79C303.67,82.77,301.88,89.64,295.63,90.56Z" style="fill:#32825F"></path><path d="M301.24,84.58a34.72,34.72,0,0,1-2.79,3,35,35,0,0,1-2.75,3,10.72,10.72,0,0,1,2.37-3.39A10.6,10.6,0,0,1,301.24,84.58Z" style="fill:#263238"></path><path d="M291.78,103.86s2.73-4.13,8-1.23C299.75,102.63,295.84,105.92,291.78,103.86Z" style="fill:#32825F"></path><path d="M297.57,102.68a14.16,14.16,0,0,1-2.87.66,13.86,13.86,0,0,1-2.89.57,6.27,6.27,0,0,1,2.78-1.08A6.13,6.13,0,0,1,297.57,102.68Z" style="fill:#263238"></path><path d="M284.63,83.72s-8.17-8.33,1.09-19C285.72,64.72,291.4,75.38,284.63,83.72Z" style="fill:#32825F"></path><path d="M284.77,69.78c.15,0-.24,3.12-.24,7s.4,6.94.24,7a7.18,7.18,0,0,1-.43-2,37.84,37.84,0,0,1-.33-5,36.12,36.12,0,0,1,.33-4.94A7.06,7.06,0,0,1,284.77,69.78Z" style="fill:#263238"></path><path d="M261.73,72s4.12-8.4,14.66-4.26C276.39,67.71,269.85,74.86,261.73,72Z" style="fill:#32825F"></path><path d="M272.31,68.34c0,.15-2.41.7-5.3,1.74s-5.14,2.12-5.21,2a17,17,0,0,1,5-2.48A17.53,17.53,0,0,1,272.31,68.34Z" style="fill:#263238"></path><path d="M340.8,111s6.29-2.74,10.21,4.59C351,115.54,344,116.42,340.8,111Z" style="fill:#32825F"></path><path d="M348.43,114a36.69,36.69,0,0,1-3.81-1.49,35.12,35.12,0,0,1-3.83-1.43,15.54,15.54,0,0,1,7.64,2.92Z" style="fill:#263238"></path><path d="M363.57,143.53s5.83-3.76,10.92,2.91C374.49,146.44,367.61,148.47,363.57,143.53Z" style="fill:#32825F"></path><path d="M371.66,145.28a40.25,40.25,0,0,1-4-.87,37,37,0,0,1-4.05-.8,11,11,0,0,1,4.16.29A10.51,10.51,0,0,1,371.66,145.28Z" style="fill:#263238"></path><path d="M267.28,117.67s1.38-6.72,9.62-5.71C276.9,112,273.58,118.23,267.28,117.67Z" style="fill:#32825F"></path><path d="M274.13,113.15a35.52,35.52,0,0,1-3.41,2.27,36,36,0,0,1-3.38,2.31,15.47,15.47,0,0,1,6.79-4.58Z" style="fill:#263238"></path><path d="M342.05,165.81s9.49-2.57,13.51,8.63C355.56,174.44,345.4,174.22,342.05,165.81Z" style="fill:#32825F"></path><path d="M352.24,171.65c-.09.13-2.21-1.43-5-3s-5.24-2.58-5.19-2.72a18.44,18.44,0,0,1,5.44,2.27A18.63,18.63,0,0,1,352.24,171.65Z" style="fill:#263238"></path><path d="M348.24,157.3s1.64-7.16,10.44-5.89C358.68,151.41,355,158,348.24,157.3Z" style="fill:#32825F"></path><path d="M355.68,152.63c.06.13-1.69,1-3.71,2.32a42.8,42.8,0,0,1-3.66,2.41,12.1,12.1,0,0,1,3.37-2.85A11.78,11.78,0,0,1,355.68,152.63Z" style="fill:#263238"></path><path d="M341.8,145.24s9-5.49,3.29-16.92C345.09,128.32,337.72,136.4,341.8,145.24Z" style="fill:#32825F"></path><path d="M344.79,133a20.73,20.73,0,0,1-.86,6.28,21.25,21.25,0,0,1-2.25,5.93c-.14-.06.89-2.7,1.74-6.06S344.64,133,344.79,133Z" style="fill:#263238"></path><path d="M379.72,133.13s8.63,1,8.24,11.53C388,144.66,379.69,141.13,379.72,133.13Z" style="fill:#32825F"></path><path d="M386.15,141.28c-.13.08-1.37-1.88-3.16-4.1s-3.44-3.85-3.34-4a21.64,21.64,0,0,1,6.5,8.07Z" style="fill:#263238"></path><path d="M373.75,120.54S369.92,111,381,105.47C381,105.47,382.06,116,373.75,120.54Z" style="fill:#32825F"></path><path d="M378.56,109.26c.13.08-1.22,2.47-2.51,5.59s-2,5.75-2.18,5.72a19.82,19.82,0,0,1,1.7-5.92A19.88,19.88,0,0,1,378.56,109.26Z" style="fill:#263238"></path><path d="M379.92,119.59s0-8.7,10.47-9.57C390.39,110,387.88,118.66,379.92,119.59Z" style="fill:#32825F"></path><path d="M387.25,112.22c.09.12-1.71,1.59-3.7,3.63s-3.41,3.88-3.54,3.79a15.77,15.77,0,0,1,3.17-4.15A15.6,15.6,0,0,1,387.25,112.22Z" style="fill:#263238"></path><path d="M364.29,120.15s-7.33-4.69-2.38-14C361.91,106.16,367.82,113,364.29,120.15Z" style="fill:#32825F"></path><path d="M362.06,110c.15,0,.41,2.3,1.06,5.08s1.41,5,1.27,5a15.7,15.7,0,0,1-1.78-4.91A15.26,15.26,0,0,1,362.06,110Z" style="fill:#263238"></path><path d="M385.51,121s5.35-6.87,14.15-1.08C399.66,119.92,392.35,125.17,385.51,121Z" style="fill:#32825F"></path><path d="M395.83,119.72c0,.15-2.33.19-5.15.58s-5.09.94-5.13.8a21.49,21.49,0,0,1,10.28-1.38Z" style="fill:#263238"></path><path d="M369.65,128s6.22-6.09,14.16.82C383.81,128.85,375.87,133.08,369.65,128Z" style="fill:#32825F"></path><path d="M380,128.14c0,.15-2.33-.12-5.18-.11s-5.16.25-5.19.1a15.83,15.83,0,0,1,5.19-.63A15.51,15.51,0,0,1,380,128.14Z" style="fill:#263238"></path><path d="M309.36,154.81s7.35-5.63,14.86,2.69C324.22,157.5,315.28,161,309.36,154.81Z" style="fill:#32825F"></path><path d="M320.33,156.26c0,.15-2.45-.44-5.46-.8s-5.49-.38-5.5-.53a16.73,16.73,0,0,1,5.56,0A17.1,17.1,0,0,1,320.33,156.26Z" style="fill:#263238"></path><path d="M299.44,138.81s-4.16-7-13-2.65C286.43,136.16,292.61,141.89,299.44,138.81Z" style="fill:#32825F"></path><path d="M290,136.42a19.63,19.63,0,0,1,9.39,2.48c-.06.14-2.09-.65-4.67-1.33S290,136.57,290,136.42Z" style="fill:#263238"></path><path d="M290.54,118.77s-4.62-6.19-12.53-1.22C278,117.55,284.4,122.34,290.54,118.77Z" style="fill:#32825F"></path><path d="M281.41,117.44a12.68,12.68,0,0,1,4.64.12,13.32,13.32,0,0,1,4.46,1.29c-.05.15-2-.39-4.54-.77S281.41,117.59,281.41,117.44Z" style="fill:#263238"></path><path d="M257.11,146.66s5-5.88-1.58-12.5C255.53,134.16,252.26,141.46,257.11,146.66Z" style="fill:#32825F"></path><path d="M256.39,137.46a12.83,12.83,0,0,1,.9,4.55,13,13,0,0,1-.27,4.63c-.15,0-.07-2.07-.25-4.6S256.24,137.49,256.39,137.46Z" style="fill:#263238"></path><path d="M256.16,129.42s9,6.22,17.43-4.07C273.59,125.35,262.81,121.8,256.16,129.42Z" style="fill:#32825F"></path><path d="M269.06,127a21.89,21.89,0,0,1-6.32,1.84,22.29,22.29,0,0,1-6.57.4c0-.15,2.93-.29,6.48-.91S269,126.9,269.06,127Z" style="fill:#263238"></path><path d="M240.82,106.86S239.3,96,252.27,93.11C252.27,93.11,250.6,104.34,240.82,106.86Z" style="fill:#32825F"></path><path d="M248.72,96.4a13.46,13.46,0,0,1-1.35,1.73c-.87,1-2,2.49-3.26,4.15s-2.27,3.19-3,4.32a11.17,11.17,0,0,1-1.26,1.8,7.75,7.75,0,0,1,.94-2,48.17,48.17,0,0,1,6.31-8.53A7.45,7.45,0,0,1,248.72,96.4Z" style="fill:#263238"></path><path d="M258.51,68.17s-3.38-13.87,13-19.3C271.53,48.87,270.85,63.62,258.51,68.17Z" style="fill:#32825F"></path><path d="M267.37,53.59A14.72,14.72,0,0,1,266,55.68c-.88,1.26-2.06,3-3.26,5s-2.19,3.91-2.88,5.28a14.72,14.72,0,0,1-1.17,2.21,10.22,10.22,0,0,1,.84-2.36,47.33,47.33,0,0,1,2.76-5.4,46.77,46.77,0,0,1,3.42-5A10.31,10.31,0,0,1,267.37,53.59Z" style="fill:#263238"></path><path d="M259,118.39s-7.07-3.15-3.95-12C255.06,106.4,261.15,111.6,259,118.39Z" style="fill:#32825F"></path><path d="M255.7,109.76c.15,0,.69,2,1.63,4.31s1.89,4.19,1.75,4.27a13.19,13.19,0,0,1-2.24-4.08A12.71,12.71,0,0,1,255.7,109.76Z" style="fill:#263238"></path><path d="M237.08,92.18s1.52-7.59,10.83-6.48C247.91,85.7,244.18,92.79,237.08,92.18Z" style="fill:#32825F"></path><path d="M244.78,87.06a8.59,8.59,0,0,1-1.53,1c-.95.61-2.26,1.47-3.69,2.43s-2.71,1.88-3.62,2.55a8.24,8.24,0,0,1-1.52,1c-.12-.12,2-2.07,4.85-4S244.71,86.91,244.78,87.06Z" style="fill:#263238"></path><path d="M258.07,78.56s-8.07-8.65-19.29.24C238.78,78.8,249.31,85,258.07,78.56Z" style="fill:#32825F"></path><path d="M243.94,78.07a10,10,0,0,1,2.74-.31,61.55,61.55,0,0,1,6.65.17c2.59.2,4.92.49,6.6.78a12.59,12.59,0,0,1,2.69.61,16.94,16.94,0,0,1-2.74-.25c-1.68-.19-4-.42-6.59-.62s-4.91-.3-6.6-.32S244,78.14,243.94,78.07Z" style="fill:#263238"></path><path d="M254.76,59.83s-4.88-6,1.89-12.48C256.65,47.35,259.74,54.74,254.76,59.83Z" style="fill:#32825F"></path><path d="M255.71,50.63c.15,0-.27,2.06-.5,4.59s-.21,4.59-.36,4.6a13.17,13.17,0,0,1-.16-4.65A12.91,12.91,0,0,1,255.71,50.63Z" style="fill:#263238"></path><path d="M292.51,72S289.57,59,305,54.2C305,54.2,304.12,68,292.51,72Z" style="fill:#32825F"></path><path d="M301,58.55a13.69,13.69,0,0,1-1.32,1.93c-.84,1.17-2,2.81-3.13,4.67s-2.11,3.62-2.78,4.89a11.48,11.48,0,0,1-1.15,2,9.55,9.55,0,0,1,.82-2.2,43.63,43.63,0,0,1,2.67-5,42.4,42.4,0,0,1,3.28-4.62A8.62,8.62,0,0,1,301,58.55Z" style="fill:#263238"></path><path d="M264.41,103.82s3.81-14.33-13.11-20.32C251.3,83.5,251.69,98.83,264.41,103.82Z" style="fill:#32825F"></path><path d="M255.52,88.49a14.59,14.59,0,0,1,2,2.53c1.16,1.63,2.65,4,4.16,6.62a77.09,77.09,0,0,1,3.54,7,14.65,14.65,0,0,1,1.12,3,29.77,29.77,0,0,1-1.45-2.89c-.88-1.79-2.16-4.23-3.66-6.88s-2.94-5-4-6.68A30.34,30.34,0,0,1,255.52,88.49Z" style="fill:#263238"></path><path d="M250.91,69.61s3.39-14.44-13.7-19.93C237.21,49.68,238.06,65,250.91,69.61Z" style="fill:#32825F"></path><path d="M241.58,54.54a11.38,11.38,0,0,1,1.75,1.94,49.46,49.46,0,0,1,3.59,5.16,50.93,50.93,0,0,1,2.92,5.58,11.23,11.23,0,0,1,.9,2.45,16.27,16.27,0,0,1-1.24-2.29c-.72-1.43-1.76-3.38-3-5.47S244,58,243,56.7A15.62,15.62,0,0,1,241.58,54.54Z" style="fill:#263238"></path><path d="M299.91,177.9s3.21-7.48,12.55-4.34C312.46,173.56,307.09,180.05,299.91,177.9Z" style="fill:#32825F"></path><path d="M309,174.29c0,.15-2.06.74-4.52,1.76s-4.38,2.06-4.46,1.93a14.06,14.06,0,0,1,4.26-2.41A13.89,13.89,0,0,1,309,174.29Z" style="fill:#263238"></path><path d="M268.36,186.56s-3.36-15.37,14.85-20.91C283.21,165.65,282.06,181.88,268.36,186.56Z" style="fill:#32825F"></path><path d="M278.5,170.74a17.8,17.8,0,0,1-1.59,2.25c-1,1.37-2.36,3.28-3.73,5.47s-2.51,4.25-3.3,5.75a19,19,0,0,1-1.34,2.41,12,12,0,0,1,1-2.58,52.85,52.85,0,0,1,7.07-11.27A12.51,12.51,0,0,1,278.5,170.74Z" style="fill:#263238"></path><path d="M260.41,154.63s-2.81-12,11.36-16.54C271.77,138.09,271.07,150.8,260.41,154.63Z" style="fill:#32825F"></path><path d="M268.15,142.13c.12.1-1.93,2.67-4,6.14s-3.43,6.47-3.58,6.41a7.86,7.86,0,0,1,.72-2.05,41.54,41.54,0,0,1,2.41-4.63,38.8,38.8,0,0,1,3-4.28A8.28,8.28,0,0,1,268.15,142.13Z" style="fill:#263238"></path><path d="M353.75,160.29s.77,6.56,8.77,6.26C362.52,166.55,359.83,160.26,353.75,160.29Z" style="fill:#32825F"></path><path d="M360,165.18a10,10,0,0,1-3.41-2.05,10.11,10.11,0,0,1-2.73-2.89,32.79,32.79,0,0,1,3.06,2.48A33,33,0,0,1,360,165.18Z" style="fill:#263238"></path><path d="M394.44,185.69s-3.86-6.3,3.37-11.56C397.81,174.13,399.79,181.51,394.44,185.69Z" style="fill:#32825F"></path><path d="M396.5,177.11c.14.06-.5,1.92-1,4.28s-.78,4.31-.93,4.3a12,12,0,0,1,.42-4.42A12.16,12.16,0,0,1,396.5,177.11Z" style="fill:#263238"></path><path d="M350.24,180.74s5.05-6,12.72-.44C363,180.3,356.22,184.74,350.24,180.74Z" style="fill:#32825F"></path><path d="M359.54,180a12.47,12.47,0,0,1-2,.2c-1.19.1-2.85.28-4.67.51l-4.67.63a9.52,9.52,0,0,1-1.94.22c0-.16,2.87-.92,6.54-1.37a40.77,40.77,0,0,1,4.73-.36A5.59,5.59,0,0,1,359.54,180Z" style="fill:#263238"></path><path d="M322.92,196.53s.89-6.09,8.32-5.6C331.24,190.93,328.58,196.71,322.92,196.53Z" style="fill:#32825F"></path><path d="M328.81,192.14a12.35,12.35,0,0,1-1.46,1.23c-.9.75-2.12,1.81-3.47,3-2.7,2.37-4.85,4.33-4.95,4.24a29.49,29.49,0,0,1,4.6-4.63c1.36-1.19,2.63-2.21,3.6-2.9A4.77,4.77,0,0,1,328.81,192.14Z" style="fill:#263238"></path><path d="M322,187.92s4-2.77,1-7.87C323,180.05,319.85,184,322,187.92Z" style="fill:#32825F"></path><path d="M323,182.2a3.22,3.22,0,0,1,0,1.52,34.39,34.39,0,0,1-.78,3.58,19.77,19.77,0,0,1-1.71,4.87,36.83,36.83,0,0,1,1.21-5l.92-3.51A7.27,7.27,0,0,1,323,182.2Z" style="fill:#263238"></path><path d="M270.31,90.38s-1.35-6,5.76-8.22C276.07,82.16,275.66,88.51,270.31,90.38Z" style="fill:#32825F"></path><path d="M274.24,84.16a14.92,14.92,0,0,1-.93,1.67c-.57,1-1.33,2.46-2.17,4A61.69,61.69,0,0,1,268,95.6a30.42,30.42,0,0,1,2.64-6c.84-1.6,1.66-3,2.32-4A4.77,4.77,0,0,1,274.24,84.16Z" style="fill:#263238"></path><path d="M277.34,145s-1.41-6,5.68-8.26C283,136.78,282.67,143.13,277.34,145Z" style="fill:#32825F"></path><path d="M281.2,138.8a14.09,14.09,0,0,1-.9,1.67c-.56,1-1.31,2.47-2.13,4.07-1.64,3.19-2.93,5.8-3.05,5.75a30.34,30.34,0,0,1,2.58-6c.83-1.6,1.63-3,2.28-4S281.15,138.75,281.2,138.8Z" style="fill:#263238"></path><path d="M317.38,118s5.87-1.84,8.67,5.06C326.05,123,319.68,123.14,317.38,118Z" style="fill:#32825F"></path><path d="M323.9,121.36a12.78,12.78,0,0,1-1.74-.78c-1.07-.48-2.56-1.13-4.21-1.83a62.77,62.77,0,0,1-6-2.61,30.11,30.11,0,0,1,6.17,2.14c1.66.7,3.14,1.4,4.18,2A4.94,4.94,0,0,1,323.9,121.36Z" style="fill:#263238"></path><path d="M356.63,190.55s7.09-8.56,18.1-.83C374.73,189.72,365.19,196.14,356.63,190.55Z" style="fill:#32825F"></path><path d="M369.85,189.31c0,.16-3,.09-6.61.47s-6.53,1.05-6.57.9a6.44,6.44,0,0,1,1.86-.62,36.65,36.65,0,0,1,4.65-.8,37.36,37.36,0,0,1,4.72-.17A6.56,6.56,0,0,1,369.85,189.31Z" style="fill:#263238"></path><path d="M346.75,200.55s-7.31,2.74-4.7,11.82C342.05,212.37,348.5,207.52,346.75,200.55Z" style="fill:#32825F"></path><path d="M342.9,209a12.87,12.87,0,0,1,1.42-4.47,13.43,13.43,0,0,1,2.5-4c.13.09-.95,1.87-2,4.19S343,209.08,342.9,209Z" style="fill:#263238"></path><path d="M281.93,211.24s4.95-7.61,14.61-2.38C296.54,208.86,289.41,215,281.93,211.24Z" style="fill:#32825F"></path><path d="M292.54,209c0,.16-2.4.4-5.31,1s-5.19,1.44-5.25,1.3A22.82,22.82,0,0,1,292.54,209Z" style="fill:#263238"></path><path d="M325.4,177.84s11.62-4,17.56,9.65C343,187.49,330.26,188.06,325.4,177.84Z" style="fill:#32825F"></path><path d="M338.58,184.29c-.08.14-2.84-1.65-6.49-3.38s-6.77-2.77-6.73-2.92a8.23,8.23,0,0,1,2.11.51,40.77,40.77,0,0,1,9.39,4.48A8,8,0,0,1,338.58,184.29Z" style="fill:#263238"></path><path d="M309.7,183.28s2-7.73,11.55-6.05C321.25,177.23,317,184.32,309.7,183.28Z" style="fill:#32825F"></path><path d="M317.94,178.45c.06.14-1.88,1-4.12,2.38s-3.95,2.64-4.05,2.52a19.39,19.39,0,0,1,8.17-4.9Z" style="fill:#263238"></path><path d="M307.4,151.21s3.48-9.84,15.69-6.6C323.09,144.61,316.76,153.36,307.4,151.21Z" style="fill:#32825F"></path><path d="M318.65,145.83a22.08,22.08,0,0,1-2.4,1.15c-1.49.7-3.5,1.74-5.71,2.93s-4.19,2.3-5.62,3.12a17.8,17.8,0,0,1-2.34,1.28,10.76,10.76,0,0,1,2.15-1.59c1.38-.91,3.34-2.07,5.56-3.27a63.37,63.37,0,0,1,5.81-2.81A9.42,9.42,0,0,1,318.65,145.83Z" style="fill:#263238"></path><path d="M255.92,163.43s5.51-11.3-7.59-19.05C248.33,144.38,246.15,157.21,255.92,163.43Z" style="fill:#32825F"></path><path d="M251,149.23a12.48,12.48,0,0,1,1.42,2.89c.76,1.84,1.63,4.45,2.49,7.36s1.5,5.58,1.9,7.53a15.5,15.5,0,0,1,.48,3.18,29.26,29.26,0,0,1-.84-3.1c-.49-1.92-1.21-4.56-2-7.46s-1.67-5.52-2.33-7.38S251,149.26,251,149.23Z" style="fill:#263238"></path><path d="M298,131.23s-4.16-11.86-18.88-8C279.07,123.24,286.67,133.8,298,131.23Z" style="fill:#32825F"></path><path d="M284.41,124.73a12,12,0,0,1,3.06,1c1.84.76,4.31,2,7,3.41s5,2.85,6.7,3.93a15.65,15.65,0,0,1,2.61,1.9,27.64,27.64,0,0,1-2.8-1.58c-1.72-1-4.1-2.35-6.75-3.79s-5.1-2.69-6.89-3.53S284.39,124.8,284.41,124.73Z" style="fill:#263238"></path><path d="M347.77,99.71s-1.66-11.93,12.57-15.1C360.34,84.61,358.51,96.94,347.77,99.71Z" style="fill:#32825F"></path><path d="M356.45,88.23c.11.11-2.13,2.43-4.48,5.62s-3.93,6-4.06,5.92a7.28,7.28,0,0,1,.88-1.93,38.7,38.7,0,0,1,2.76-4.3,38.22,38.22,0,0,1,3.31-3.91A7.39,7.39,0,0,1,356.45,88.23Z" style="fill:#263238"></path><path d="M321.75,92.66s-3-12.27,11.6-17C333.35,75.62,332.69,88.67,321.75,92.66Z" style="fill:#32825F"></path><path d="M329.64,79.79c.12.1-2,2.75-4.11,6.32s-3.49,6.66-3.63,6.6a7.71,7.71,0,0,1,.73-2.1,40.93,40.93,0,0,1,2.46-4.77,39.16,39.16,0,0,1,3.05-4.41A7.86,7.86,0,0,1,329.64,79.79Z" style="fill:#263238"></path><path d="M289.21,196.2S299,187.92,310,199C310,199,297.81,204.32,289.21,196.2Z" style="fill:#32825F"></path><path d="M304.5,197.5c0,.16-3.4-.55-7.61-.86s-7.64-.13-7.65-.29a8.63,8.63,0,0,1,2.24-.28,42.35,42.35,0,0,1,10.85.82A9,9,0,0,1,304.5,197.5Z" style="fill:#263238"></path><path d="M374.56,213.78s6,5.82-.44,13.62C374.12,227.4,369.87,219.88,374.56,213.78Z" style="fill:#32825F"></path><path d="M374.72,223.77c-.16,0,0-2.25,0-5s-.38-4.95-.22-5a20.52,20.52,0,0,1,.25,10Z" style="fill:#263238"></path><path d="M350.55,208.5s5.79,6-.93,13.6C349.62,222.1,345.64,214.42,350.55,208.5Z" style="fill:#32825F"></path><path d="M350.34,218.49c-.15,0,.13-2.25.15-5s-.19-5,0-5a14.56,14.56,0,0,1,.56,5A14.27,14.27,0,0,1,350.34,218.49Z" style="fill:#263238"></path><path d="M356.7,213.27s13.21,1.56,12.61,17.66C369.31,230.93,356.65,225.52,356.7,213.27Z" style="fill:#32825F"></path><path d="M366.54,225.76a13.89,13.89,0,0,1-1.38-1.88c-.82-1.18-2-2.79-3.35-4.49s-2.7-3.18-3.67-4.24a11.89,11.89,0,0,1-1.54-1.75,9,9,0,0,1,1.8,1.5,42.09,42.09,0,0,1,3.81,4.16,42.9,42.9,0,0,1,3.26,4.62A8.69,8.69,0,0,1,366.54,225.76Z" style="fill:#263238"></path><path d="M401.89,193.17s6.25-5.55,13.55,1.46C415.44,194.63,407.62,198.31,401.89,193.17Z" style="fill:#32825F"></path><path d="M411.86,193.77c0,.15-2.23-.22-5-.35s-5,0-5-.15a14.41,14.41,0,0,1,5-.37A14.7,14.7,0,0,1,411.86,193.77Z" style="fill:#263238"></path><path d="M383.86,223.87s9.89-2.28,14,10.31C397.89,234.18,387.31,233.34,383.86,223.87Z" style="fill:#32825F"></path><path d="M394.45,230.92c-.11.11-2.29-1.72-5.22-3.62s-5.47-3.17-5.41-3.31a28.76,28.76,0,0,1,10.63,6.93Z" style="fill:#263238"></path><path d="M393.15,203.18s3.75-8.71,12.57-4.49A11.67,11.67,0,0,1,393.15,203.18Z" style="fill:#32825F"></path><path d="M403.18,199c0,.15-2.28.84-5,2s-4.85,2.36-4.93,2.23a16.6,16.6,0,0,1,4.72-2.71A16.77,16.77,0,0,1,403.18,199Z" style="fill:#263238"></path><path d="M399.09,153.45s9.32-11.3,20.58-1.23A18,18,0,0,1,399.09,153.45Z" style="fill:#32825F"></path><path d="M415.76,151.62a13.83,13.83,0,0,1-2.46.19c-1.51.08-3.59.21-5.88.48s-4.35.63-5.83.91a12.65,12.65,0,0,1-2.43.4,10.21,10.21,0,0,1,2.35-.76,48.72,48.72,0,0,1,5.85-1.07,47.47,47.47,0,0,1,5.94-.33A10.64,10.64,0,0,1,415.76,151.62Z" style="fill:#263238"></path><path d="M403.16,179.67s-3.67-8.88,5.64-12.3A11.83,11.83,0,0,1,403.16,179.67Z" style="fill:#32825F"></path><path d="M407.25,169.46c.13.07-1,2.25-2.11,5.06s-1.72,5.19-1.87,5.16a16.8,16.8,0,0,1,1.39-5.35A17,17,0,0,1,407.25,169.46Z" style="fill:#263238"></path><path d="M409.58,218.7s15.79,2.68,12.38,18.85A19.73,19.73,0,0,1,409.58,218.7Z" style="fill:#32825F"></path><path d="M420.39,233.51a17.37,17.37,0,0,1-1.5-2.23c-.89-1.4-2.15-3.3-3.66-5.33s-3-3.78-4.05-5a16.54,16.54,0,0,1-1.71-2.07,10.84,10.84,0,0,1,2,1.82,52.33,52.33,0,0,1,4.2,5,53.13,53.13,0,0,1,3.56,5.45A11.31,11.31,0,0,1,420.39,233.51Z" style="fill:#263238"></path><path d="M420.32,219.07s12.5-3.28,15.37,9.73A15.91,15.91,0,0,1,420.32,219.07Z" style="fill:#32825F"></path><path d="M433.19,226.36c-.09.13-2.76-1.83-6.32-3.79s-6.63-3.2-6.58-3.35a7.82,7.82,0,0,1,2.08.65,39.45,39.45,0,0,1,4.75,2.24,42.43,42.43,0,0,1,4.42,2.83A7.73,7.73,0,0,1,433.19,226.36Z" style="fill:#263238"></path><path d="M410.87,175.1s9.24-8.94,18.08,1A15.83,15.83,0,0,1,410.87,175.1Z" style="fill:#32825F"></path><path d="M425.59,175.15c0,.15-3.29-.24-7.34-.21s-7.31.46-7.33.31a7.45,7.45,0,0,1,2.12-.46,40.85,40.85,0,0,1,5.21-.37,39,39,0,0,1,5.22.31A7.7,7.7,0,0,1,425.59,175.15Z" style="fill:#263238"></path><path d="M414,214.49s4.4-14.08,18.74-9A18.18,18.18,0,0,1,414,214.49Z" style="fill:#32825F"></path><path d="M428.9,206.46a14,14,0,0,1-2.22,1.1c-1.38.65-3.27,1.57-5.31,2.69s-3.81,2.24-5.09,3.07a14.29,14.29,0,0,1-2.11,1.29,9.56,9.56,0,0,1,1.9-1.59,46.27,46.27,0,0,1,5.05-3.23,47.35,47.35,0,0,1,5.42-2.56A9.87,9.87,0,0,1,428.9,206.46Z" style="fill:#263238"></path><path d="M401,217.85s7.29,2.87,4,10.27A9.64,9.64,0,0,1,401,217.85Z" style="fill:#32825F"></path><path d="M404.65,226a44.11,44.11,0,0,1-1.83-4.08c-1-2.23-2.06-3.95-1.93-4a12.36,12.36,0,0,1,2.4,3.81A12.61,12.61,0,0,1,404.65,226Z" style="fill:#263238"></path><path d="M384.06,191.24s7.45-2.42,9.65,5.35A9.65,9.65,0,0,1,384.06,191.24Z" style="fill:#32825F"></path><path d="M392.11,195.2c-.08.13-1.79-.92-4-2s-4.1-1.74-4.05-1.88a12,12,0,0,1,4.28,1.41A12.33,12.33,0,0,1,392.11,195.2Z" style="fill:#263238"></path><path d="M336.5,147.06s4-5.26-1.55-9.2A8.15,8.15,0,0,0,336.5,147.06Z" style="fill:#32825F"></path><path d="M335.61,139.52a9.59,9.59,0,0,1,.93,3.7,9.36,9.36,0,0,1-.12,3.82,29,29,0,0,1-.4-3.76A26.79,26.79,0,0,1,335.61,139.52Z" style="fill:#263238"></path><path d="M329.08,153.52s7.19-6.27.44-13.43A11.76,11.76,0,0,0,329.08,153.52Z" style="fill:#32825F"></path><path d="M330,142.63a17.15,17.15,0,0,1,.14,5.48,16.65,16.65,0,0,1-1.14,5.36c-.15,0,.36-2.42.62-5.41S329.82,142.64,330,142.63Z" style="fill:#263238"></path><path d="M362.24,171s10.28,1.37,8.46,11.92A12.8,12.8,0,0,1,362.24,171Z" style="fill:#32825F"></path><path d="M369.59,180.29c-.14.08-1.55-2.17-3.59-4.72s-3.93-4.4-3.83-4.52a19.13,19.13,0,0,1,4.24,4.2A19.78,19.78,0,0,1,369.59,180.29Z" style="fill:#263238"></path><path d="M383.78,209.74s5.6,5.48-.27,11A9.65,9.65,0,0,1,383.78,209.74Z" style="fill:#32825F"></path><path d="M384,218.71c-.15,0,0-2-.1-4.48s-.35-4.44-.2-4.46a17.82,17.82,0,0,1,.3,8.94Z" style="fill:#263238"></path><path d="M413.27,185.66s9.6-7,16.47,3.15A14.68,14.68,0,0,1,413.27,185.66Z" style="fill:#32825F"></path><path d="M426.77,187.55c0,.15-3-.61-6.71-1.09s-6.76-.51-6.76-.66a6.41,6.41,0,0,1,2-.17,37.49,37.49,0,0,1,9.58,1.26A6.91,6.91,0,0,1,426.77,187.55Z" style="fill:#263238"></path><path d="M401.53,146.84s10.41-2.65,7.26-13.27A13.24,13.24,0,0,0,401.53,146.84Z" style="fill:#32825F"></path><path d="M408,136.36a20.55,20.55,0,0,1-2.67,5.55,20,20,0,0,1-3.84,4.83c-.12-.1,1.61-2.23,3.4-5.1S407.81,136.29,408,136.36Z" style="fill:#263238"></path><path d="M388,133.79s6.53-4.33,10.74,2.57A9.67,9.67,0,0,1,388,133.79Z" style="fill:#32825F"></path><path d="M396.86,135.45c-.05.14-2-.41-4.39-.83s-4.42-.58-4.42-.73a12.24,12.24,0,0,1,4.51.21A12.42,12.42,0,0,1,396.86,135.45Z" style="fill:#263238"></path><path d="M388,126.49s6.53-4.34,10.74,2.57A9.67,9.67,0,0,1,388,126.49Z" style="fill:#32825F"></path><path d="M396.86,128.14a42.78,42.78,0,0,1-4.39-.83c-2.42-.44-4.42-.58-4.42-.73a12.13,12.13,0,0,1,4.51.22A12.54,12.54,0,0,1,396.86,128.14Z" style="fill:#263238"></path><path d="M372.11,107.49s.54-7.82,8.58-6.95A9.65,9.65,0,0,1,372.11,107.49Z" style="fill:#32825F"></path><path d="M378.8,101.5c.08.13-1.53,1.32-3.34,3s-3.15,3.15-3.27,3.06a12.23,12.23,0,0,1,2.92-3.44A12.73,12.73,0,0,1,378.8,101.5Z" style="fill:#263238"></path><path d="M317,136.59s5.65-12.28,18.08-6A16.67,16.67,0,0,1,317,136.59Z" style="fill:#32825F"></path><path d="M331.45,131c0,.15-3.32,1-7.27,2.58s-7,3.24-7.07,3.1a8.42,8.42,0,0,1,1.9-1.24,43.13,43.13,0,0,1,10.2-4A9,9,0,0,1,331.45,131Z" style="fill:#263238"></path><path d="M277.59,65s8.76-5.22,3-14.05A12.56,12.56,0,0,0,277.59,65Z" style="fill:#32825F"></path><path d="M280.61,53.75a19.19,19.19,0,0,1-.92,5.79A18.49,18.49,0,0,1,277.48,65c-.14-.07.86-2.48,1.71-5.58S280.45,53.73,280.61,53.75Z" style="fill:#263238"></path><path d="M419.74,203.29s6.26-4.71,1.15-11A9.64,9.64,0,0,0,419.74,203.29Z" style="fill:#32825F"></path><path d="M421.12,194.43a12.65,12.65,0,0,1-.17,4.5,12.41,12.41,0,0,1-1.29,4.32,43.43,43.43,0,0,1,.78-4.4A41.46,41.46,0,0,1,421.12,194.43Z" style="fill:#263238"></path><path d="M427.13,203.1S425,195.85,432.6,194A9.3,9.3,0,0,1,427.13,203.1Z" style="fill:#32825F"></path><path d="M431.2,195.49a37.93,37.93,0,0,1-2,3.79c-1.1,2.1-1.81,3.89-1.95,3.84a11.6,11.6,0,0,1,1.49-4.08A11.74,11.74,0,0,1,431.2,195.49Z" style="fill:#263238"></path><path d="M404.82,162.36s8.24-7.34,15.47,1.46A13.59,13.59,0,0,1,404.82,162.36Z" style="fill:#32825F"></path><path d="M417.44,162.92c0,.16-2.82-.28-6.29-.4s-6.28.12-6.3,0a28.67,28.67,0,0,1,12.59.44Z" style="fill:#263238"></path><path d="M362.23,205.79s7.66,1.66,5.63,9.49A9.65,9.65,0,0,1,362.23,205.79Z" style="fill:#32825F"></path><path d="M367.19,213.27a44.3,44.3,0,0,1-2.47-3.73c-1.37-2-2.66-3.57-2.55-3.68a12.27,12.27,0,0,1,3,3.39A12.57,12.57,0,0,1,367.19,213.27Z" style="fill:#263238"></path><path d="M353.82,194.72s5.37,3.78,1.26,9.17A8.09,8.09,0,0,1,353.82,194.72Z" style="fill:#32825F"></path><path d="M355.21,202.11a26.16,26.16,0,0,1-.73-3.68,28.75,28.75,0,0,1-.73-3.67,9.14,9.14,0,0,1,1.24,3.57A9.55,9.55,0,0,1,355.21,202.11Z" style="fill:#263238"></path><path d="M367.12,200.91s5.52-11.28,16.93-5.13A15.48,15.48,0,0,1,367.12,200.91Z" style="fill:#32825F"></path><path d="M380.66,196.06c0,.16-3.1.89-6.81,2.26s-6.57,2.85-6.64,2.71A7.31,7.31,0,0,1,369,199.9a39.61,39.61,0,0,1,9.56-3.52A8.17,8.17,0,0,1,380.66,196.06Z" style="fill:#263238"></path><path d="M405.42,210.73s-1.43-9.65,10.95-12.68C416.37,198.05,414.76,208.13,405.42,210.73Z" style="fill:#32825F"></path><path d="M413,201.11c.11.11-1.81,2.06-3.85,4.73s-3.46,5-3.59,4.93a20,20,0,0,1,3.17-5.25A20.21,20.21,0,0,1,413,201.11Z" style="fill:#263238"></path><path d="M330.8,213.06s9-3,13.47,7.58C344.27,220.64,334.47,221,330.8,213.06Z" style="fill:#32825F"></path><path d="M340.92,218.14c-.09.12-2.22-1.25-5-2.61s-5.18-2.21-5.14-2.35a24.19,24.19,0,0,1,10.15,5Z" style="fill:#263238"></path><path d="M327.94,202.18s4-8.59,14.75-4.58C342.69,197.6,336.21,205,327.94,202.18Z" style="fill:#32825F"></path><path d="M338.58,198.31c0,.15-2.43.75-5.34,1.85s-5.17,2.25-5.24,2.11a24.45,24.45,0,0,1,10.58-4Z" style="fill:#263238"></path><path d="M388.86,209.13s-3.48,11.05,9.52,16.32C398.38,225.45,398.61,213.47,388.86,209.13Z" style="fill:#32825F"></path><path d="M395.26,221.41a6.91,6.91,0,0,1-1.29-1.59,35.81,35.81,0,0,1-2.51-4.23,36.73,36.73,0,0,1-1.94-4.52,6.63,6.63,0,0,1-.52-2c.14,0,1.19,2.87,2.92,6.26S395.39,221.32,395.26,221.41Z" style="fill:#263238"></path><path d="M397.17,190.94s1.29-11.57,15.39-11.14C412.56,179.8,407.9,190.92,397.17,190.94Z" style="fill:#32825F"></path><path d="M408,182.25c.08.14-2.56,1.78-5.52,4.21s-5.12,4.67-5.24,4.57a7.17,7.17,0,0,1,1.29-1.6,36.1,36.1,0,0,1,3.62-3.37,35.71,35.71,0,0,1,4-2.87A7.44,7.44,0,0,1,408,182.25Z" style="fill:#263238"></path><path d="M381.59,157.3s1.5-12.88,17.18-12.31C398.77,145,393.52,157.33,381.59,157.3Z" style="fill:#32825F"></path><path d="M393.74,147.69c.08.14-2.89,1.94-6.2,4.63s-5.71,5.19-5.83,5.08a8.78,8.78,0,0,1,1.45-1.76,44.67,44.67,0,0,1,4-3.73,42.37,42.37,0,0,1,4.5-3.17A8.21,8.21,0,0,1,393.74,147.69Z" style="fill:#263238"></path><path d="M339.84,227.71s11.59,2.42,9.8,16.64C349.64,244.35,338.84,238.57,339.84,227.71Z" style="fill:#32825F"></path><path d="M347.59,239.55c-.14.07-1.55-2.77-3.72-6s-4.25-5.63-4.13-5.73a6.89,6.89,0,0,1,1.49,1.45,38.34,38.34,0,0,1,3.07,4,37.17,37.17,0,0,1,2.51,4.35A7.53,7.53,0,0,1,347.59,239.55Z" style="fill:#263238"></path><path d="M214.44,238.21s3.2,7.72-5.81,12.33C208.63,250.54,207.71,241.94,214.44,238.21Z" style="fill:#32825F"></path><path d="M210.62,247.44c-.14-.08.93-2.05,1.94-4.59s1.63-4.69,1.78-4.66a20.58,20.58,0,0,1-3.72,9.25Z" style="fill:#263238"></path><path d="M225.53,209.78s-8.08,2.13-11.44-7.41C214.09,202.37,222.73,202.61,225.53,209.78Z" style="fill:#32825F"></path><path d="M216.9,204.75c.09-.12,1.89,1.2,4.28,2.55s4.43,2.24,4.38,2.38a14.55,14.55,0,0,1-4.64-1.93A14.31,14.31,0,0,1,216.9,204.75Z" style="fill:#263238"></path><path d="M197.34,306c.09,0,.56,1.46,1.55,3.75a48,48,0,0,0,4.8,8.46,47.41,47.41,0,0,0,6.47,7.27c1.84,1.68,3.09,2.6,3,2.68a5.17,5.17,0,0,1-.93-.58,27.26,27.26,0,0,1-2.36-1.83,40.37,40.37,0,0,1-6.64-7.24,41.09,41.09,0,0,1-4.72-8.62,29.72,29.72,0,0,1-1-2.82A4.25,4.25,0,0,1,197.34,306Z" style="fill:#263238"></path><path d="M208.1,308.4a83.32,83.32,0,0,1,2.89,8.81,80.6,80.6,0,0,1,2.4,9,82.36,82.36,0,0,1-2.89-8.81A80,80,0,0,1,208.1,308.4Z" style="fill:#263238"></path><path d="M200.29,320.46c.14-.07,1.44,2.37,3.52,5s4.1,4.54,4,4.66a23.29,23.29,0,0,1-7.51-9.7Z" style="fill:#263238"></path><path d="M302.64,322.59a9.52,9.52,0,0,1-1.05,2.25,41.43,41.43,0,0,1-3.32,5,40.77,40.77,0,0,1-4,4.45,10.14,10.14,0,0,1-1.91,1.58A13.92,13.92,0,0,1,294,334c1-1.11,2.44-2.68,3.86-4.51s2.59-3.58,3.41-4.86A17.43,17.43,0,0,1,302.64,322.59Z" style="fill:#263238"></path><path d="M304.1,331.91a15.9,15.9,0,0,1-6.12,5.73,36.58,36.58,0,0,1,3.09-2.83A40.61,40.61,0,0,1,304.1,331.91Z" style="fill:#263238"></path><path d="M134.61,348a12.6,12.6,0,0,1-1.7-2.54,42.69,42.69,0,0,1-3.1-6.7,43.56,43.56,0,0,1-1.9-7.14,13.74,13.74,0,0,1-.31-3.05,27.46,27.46,0,0,1,.68,3,55.14,55.14,0,0,0,4.95,13.74A29.5,29.5,0,0,1,134.61,348Z" style="fill:#263238"></path><path d="M136.86,344.93a5.86,5.86,0,0,1-.9-1.7,25.77,25.77,0,0,1-1.37-4.44,24.88,24.88,0,0,1-.55-4.62,5.77,5.77,0,0,1,.13-1.92c.16,0,.17,2.93.93,6.43S137,344.87,136.86,344.93Z" style="fill:#263238"></path><path d="M140.19,341.31a6.12,6.12,0,0,1,.2-2.47,6,6,0,0,1,.71-2.36,6.07,6.07,0,0,1-.2,2.46A6.14,6.14,0,0,1,140.19,341.31Z" style="fill:#263238"></path></g><g id="freepik--Heart--inject-14"><path d="M256.52,364c-5.66-3.44-10.14,2.44-11,3.72-.89-1.28-5.37-7.16-11-3.72-6.33,3.85-1.78,13.22-.08,15.12,2,2.27,6.34,6.38,11,7.7a25.28,25.28,0,0,0,11.24-7.7C258.16,377.12,262.84,367.87,256.52,364Z" style="fill:#32825F"></path></g></svg>